<?xml version="1.0" encoding="UTF-8" standalone="no"?>
<svg
   xmlns:dc="http://purl.org/dc/elements/1.1/"
   xmlns:cc="http://creativecommons.org/ns#"
   xmlns:rdf="http://www.w3.org/1999/02/22-rdf-syntax-ns#"
   xmlns:svg="http://www.w3.org/2000/svg"
   xmlns="http://www.w3.org/2000/svg"
   xmlns:sodipodi="http://sodipodi.sourceforge.net/DTD/sodipodi-0.dtd"
   xmlns:inkscape="http://www.inkscape.org/namespaces/inkscape"
   enable-background="new 0 0 32 32"
   height="32px"
   version="1.1"
   viewBox="0 0 32 32"
   width="32px"
   xml:space="preserve"
   id="svg24"
   sodipodi:docname="ic_action_save.svg"
   inkscape:version="0.92.4 (5da689c313, 2019-01-14)"><metadata
     id="metadata30"><rdf:RDF><cc:Work
         rdf:about=""><dc:format>image/svg+xml</dc:format><dc:type
           rdf:resource="http://purl.org/dc/dcmitype/StillImage" /><dc:title /></cc:Work></rdf:RDF></metadata><defs
     id="defs28" /><sodipodi:namedview
     pagecolor="#ffffff"
     bordercolor="#666666"
     borderopacity="1"
     objecttolerance="10"
     gridtolerance="10"
     guidetolerance="10"
     inkscape:pageopacity="0"
     inkscape:pageshadow="2"
     inkscape:window-width="1920"
     inkscape:window-height="1017"
     id="namedview26"
     showgrid="false"
     inkscape:zoom="7.375"
     inkscape:cx="-6.0338983"
     inkscape:cy="16"
     inkscape:window-x="2552"
     inkscape:window-y="78"
     inkscape:window-maximized="1"
     inkscape:current-layer="g6" /><g
     id="Approved"><g
       id="g6"><g
         id="g832"
         transform="matrix(1.1162228,0,0,1.1162228,-1.8595642,-1.8595642)"><path
           style="stroke-width:0.80790019"
           inkscape:connector-curvature="0"
           id="path4"
           d="m 21.910195,11.371301 -8.082234,7.561945 -3.73977,-3.499824 C 9.7626067,15.128844 9.2520138,15.14581 8.9466275,15.471395 8.6420491,15.796979 8.659015,16.30838 8.9845989,16.612958 l 4.2923741,4.016073 c 0.155116,0.145422 0.35386,0.218133 0.551795,0.218133 0.197936,0 0.396679,-0.07271 0.551796,-0.218133 l 8.634838,-8.079003 c 0.325584,-0.304578 0.342549,-0.815978 0.03797,-1.141562 -0.306194,-0.325583 -0.818403,-0.34255 -1.143179,-0.03716 z" /><path
           style="fill:#212121;fill-opacity:1"
           id="path10"
           d="m 16.006161,30 c -3.74,0 -7.255,-1.456 -9.899,-4.101 -4.322,-4.322 -5.34800005,-10.874 -2.554,-16.304 0.253,-0.491 0.855,-0.684 1.347,-0.432 0.491,0.252 0.685,0.855 0.432,1.347 -2.395,4.654 -1.515,10.27 2.189,13.975 2.2659999,2.267 5.279,3.515 8.485,3.515 3.205,0 6.219,-1.248 8.485,-3.515 2.266,-2.267 3.515,-5.28 3.515,-8.485 0,-3.206 -1.248,-6.219 -3.515,-8.485 -2.267,-2.266 -5.279,-3.515 -8.485,-3.515 -3.206,0 -6.2190001,1.249 -8.485,3.515 -0.391,0.391 -1.023,0.391 -1.414,0 -0.391,-0.391 -0.391,-1.023 0,-1.414 2.644,-2.644 6.159,-4.101 9.899,-4.101 3.74,0 7.256,1.457 9.899,4.101 2.645,2.644 4.101,6.159 4.101,9.899 0,3.739 -1.456,7.255 -4.101,9.899 -2.643,2.645 -6.159,4.101 -9.899,4.101 z"
           inkscape:connector-curvature="0" /></g></g></g><g
     id="Approved_1_" /><g
     id="File_Approve" /><g
     id="Folder_Approved" /><g
     id="Security_Approved" /><g
     id="Certificate_Approved" /><g
     id="User_Approved" /><g
     id="ID_Card_Approved" /><g
     id="Android_Approved" /><g
     id="Privacy_Approved" /><g
     id="Approved_2_" /><g
     id="Message_Approved" /><g
     id="Upload_Approved" /><g
     id="Download_Approved" /><g
     id="Email_Approved" /><g
     id="Data_Approved" /></svg>