<?xml version="1.0" encoding="UTF-8" standalone="no"?>
<svg
   xmlns:dc="http://purl.org/dc/elements/1.1/"
   xmlns:cc="http://creativecommons.org/ns#"
   xmlns:rdf="http://www.w3.org/1999/02/22-rdf-syntax-ns#"
   xmlns:svg="http://www.w3.org/2000/svg"
   xmlns="http://www.w3.org/2000/svg"
   xmlns:sodipodi="http://sodipodi.sourceforge.net/DTD/sodipodi-0.dtd"
   xmlns:inkscape="http://www.inkscape.org/namespaces/inkscape"
   enable-background="new 0 0 32 32"
   height="32px"
   id="Layer_1"
   version="1.1"
   viewBox="0 0 32 32"
   width="32px"
   xml:space="preserve"
   sodipodi:docname="ic_action_reject.svg"
   inkscape:version="0.92.4 (5da689c313, 2019-01-14)"><metadata
     id="metadata23"><rdf:RDF><cc:Work
         rdf:about=""><dc:format>image/svg+xml</dc:format><dc:type
           rdf:resource="http://purl.org/dc/dcmitype/StillImage" /><dc:title /></cc:Work></rdf:RDF></metadata><defs
     id="defs21" /><sodipodi:namedview
     pagecolor="#ffffff"
     bordercolor="#666666"
     borderopacity="1"
     objecttolerance="10"
     gridtolerance="10"
     guidetolerance="10"
     inkscape:pageopacity="0"
     inkscape:pageshadow="2"
     inkscape:window-width="1920"
     inkscape:window-height="1017"
     id="namedview19"
     showgrid="false"
     inkscape:zoom="7.375"
     inkscape:cx="-6.0338983"
     inkscape:cy="16"
     inkscape:window-x="2552"
     inkscape:window-y="78"
     inkscape:window-maximized="1"
     inkscape:current-layer="Layer_1" /><g
     id="g8"><polyline
       fill="none"
       points="   649,137.999 675,137.999 675,155.999 661,155.999  "
       stroke="#FFFFFF"
       stroke-linecap="round"
       stroke-linejoin="round"
       stroke-miterlimit="10"
       stroke-width="2"
       id="polyline2" /><polyline
       fill="none"
       points="   653,155.999 649,155.999 649,141.999  "
       stroke="#FFFFFF"
       stroke-linecap="round"
       stroke-linejoin="round"
       stroke-miterlimit="10"
       stroke-width="2"
       id="polyline4" /><polyline
       fill="none"
       points="   661,156 653,162 653,156  "
       stroke="#FFFFFF"
       stroke-linecap="round"
       stroke-linejoin="round"
       stroke-miterlimit="10"
       stroke-width="2"
       id="polyline6" /></g><g
     id="g826"
     transform="matrix(1.1161716,0,0,1.1161716,-1.8580305,-1.8587462)"><g
       style="fill:#212121;fill-opacity:1"
       id="g12"><path
         style="fill:#212121;fill-opacity:1"
         id="path10"
         d="M 16,30 C 12.26,30 8.745,28.544 6.101,25.899 1.779,21.577 0.753,15.025 3.547,9.595 3.8,9.104 4.402,8.911 4.894,9.163 5.385,9.415 5.579,10.018 5.326,10.51 2.931,15.164 3.811,20.78 7.515,24.485 9.781,26.752 12.794,28 16,28 19.205,28 22.219,26.752 24.485,24.485 26.751,22.218 28,19.205 28,16 28,12.794 26.752,9.781 24.485,7.515 22.218,5.249 19.206,4 16,4 12.794,4 9.781,5.249 7.515,7.515 7.124,7.906 6.492,7.906 6.101,7.515 5.71,7.124 5.71,6.492 6.101,6.101 8.745,3.457 12.26,2 16,2 19.74,2 23.256,3.457 25.899,6.101 28.544,8.745 30,12.26 30,16 30,19.739 28.544,23.255 25.899,25.899 23.256,28.544 19.74,30 16,30 Z"
         inkscape:connector-curvature="0" /></g><g
       id="g16"><path
         id="path14"
         d="M 21,17 H 11 c -0.552,0 -1,-0.448 -1,-1 0,-0.552 0.448,-1 1,-1 h 10 c 0.553,0 1,0.448 1,1 0,0.552 -0.447,1 -1,1 z"
         inkscape:connector-curvature="0" /></g></g></svg>