<?xml version="1.0" encoding="UTF-8" standalone="no"?>
<svg
   xmlns:dc="http://purl.org/dc/elements/1.1/"
   xmlns:cc="http://creativecommons.org/ns#"
   xmlns:rdf="http://www.w3.org/1999/02/22-rdf-syntax-ns#"
   xmlns:svg="http://www.w3.org/2000/svg"
   xmlns="http://www.w3.org/2000/svg"
   xmlns:sodipodi="http://sodipodi.sourceforge.net/DTD/sodipodi-0.dtd"
   xmlns:inkscape="http://www.inkscape.org/namespaces/inkscape"
   enable-background="new 0 0 32 32"
   height="32px"
   id="Layer_1"
   version="1.1"
   viewBox="0 0 32 32"
   width="32px"
   xml:space="preserve"
   sodipodi:docname="ic_action_edit_white.svg"
   inkscape:version="0.92.4 (5da689c313, 2019-01-14)"><metadata
     id="metadata17"><rdf:RDF><cc:Work
         rdf:about=""><dc:format>image/svg+xml</dc:format><dc:type
           rdf:resource="http://purl.org/dc/dcmitype/StillImage" /><dc:title /></cc:Work></rdf:RDF></metadata><defs
     id="defs15" /><sodipodi:namedview
     pagecolor="#ffffff"
     bordercolor="#666666"
     borderopacity="1"
     objecttolerance="10"
     gridtolerance="10"
     guidetolerance="10"
     inkscape:pageopacity="0"
     inkscape:pageshadow="2"
     inkscape:window-width="1920"
     inkscape:window-height="1017"
     id="namedview13"
     showgrid="false"
     inkscape:zoom="7.375"
     inkscape:cx="-50.101695"
     inkscape:cy="16"
     inkscape:window-x="2552"
     inkscape:window-y="78"
     inkscape:window-maximized="1"
     inkscape:current-layer="Layer_1" /><g
     id="g8"><polyline
       fill="none"
       points="   649,137.999 675,137.999 675,155.999 661,155.999  "
       stroke="#FFFFFF"
       stroke-linecap="round"
       stroke-linejoin="round"
       stroke-miterlimit="10"
       stroke-width="2"
       id="polyline2" /><polyline
       fill="none"
       points="   653,155.999 649,155.999 649,141.999  "
       stroke="#FFFFFF"
       stroke-linecap="round"
       stroke-linejoin="round"
       stroke-miterlimit="10"
       stroke-width="2"
       id="polyline4" /><polyline
       fill="none"
       points="   661,156 653,162 653,156  "
       stroke="#FFFFFF"
       stroke-linecap="round"
       stroke-linejoin="round"
       stroke-miterlimit="10"
       stroke-width="2"
       id="polyline6" /></g><g
     id="g819"
     transform="matrix(1.1258526,0,0,1.1258526,-2.0136417,-2.0136417)"
     style="fill:#fcfcfc;fill-opacity:1"><path
       inkscape:connector-curvature="0"
       style="fill:#fcfcfc;fill-opacity:1;stroke-width:0.50607973"
       id="path10"
       d="M 22.160819,9.8406216 C 21.672958,9.3527607 21.054529,9.043546 20.372839,8.9463787 19.380417,8.8056885 18.401659,9.13211 17.693653,9.8406216 c -0.197878,0.1978774 -0.197878,0.5182254 0,0.7161024 0.01062,0.01063 0.02429,0.01417 0.03543,0.02328 0.0091,0.01063 0.01265,0.02429 0.02328,0.03492 l 1.459537,1.459534 -7.538564,7.538565 -1.16044,-1.160442 6.395329,-6.395329 c 0.197877,-0.197877 0.197877,-0.51772 0,-0.715597 -0.197877,-0.197877 -0.51772,-0.197877 -0.715597,0 l -6.7521145,6.752116 c -5.061e-4,5.07e-4 -0.00101,5.07e-4 -0.00152,0.001 l -0.3755119,0.375482 c -0.047572,0.04758 -0.084515,0.104253 -0.1098192,0.165489 -0.024798,0.06175 -0.037956,0.127026 -0.037956,0.19231 v 3.751569 c 0,0.279862 0.2267237,0.50608 0.5060798,0.50608 h 3.7520748 c 0.134111,0 0.263162,-0.05313 0.357799,-0.148281 l 8.629165,-8.629166 c 1.231291,-1.231798 1.231291,-3.235874 0,-4.467672 z m -1.930188,0.108301 c 0.462556,0.06579 0.882603,0.2758134 1.214085,0.6072954 0.713067,0.713573 0.812764,1.805187 0.310733,2.631109 l -1.470668,-1.471174 v 0 0 L 18.809053,10.240425 C 19.229605,9.98283 19.727081,9.8775654 20.230631,9.9489226 Z M 9.9278602,22.073581 v -2.774329 l 1.3866578,1.386658 c 5.06e-4,5.07e-4 5.06e-4,0.001 5.06e-4,0.001 0,0 0.001,5.06e-4 0.001,5.06e-4 l 1.386152,1.386152 z m 2.4610648,-1.744962 7.538057,-7.538565 1.160442,1.160441 -7.538564,7.538564 z" /><path
       style="fill:#fcfcfc;fill-opacity:1"
       id="path10-6"
       d="m 16.006161,30 c -3.74,0 -7.2549999,-1.456 -9.8989999,-4.101 -4.322,-4.322 -5.348,-10.874 -2.554,-16.304 0.253,-0.491 0.855,-0.684 1.347,-0.432 0.491,0.252 0.685,0.855 0.432,1.347 -2.395,4.654 -1.515,10.27 2.189,13.975 C 9.7871607,26.752 12.800161,28 16.006161,28 c 3.205,0 6.219,-1.248 8.485,-3.515 2.266,-2.267 3.515,-5.28 3.515,-8.485 0,-3.206 -1.248,-6.2190001 -3.515,-8.4850001 -2.267,-2.2660002 -5.279,-3.5150001 -8.485,-3.5150001 -3.206,0 -6.2190003,1.2489999 -8.4849999,3.5150001 -0.391,0.391 -1.023,0.391 -1.414,0 -0.391,-0.391 -0.391,-1.023 0,-1.414 2.644,-2.6440001 6.1589999,-4.1010001 9.8989999,-4.1010001 3.74,0 7.256,1.457 9.899,4.1010001 2.645,2.6440001 4.101,6.1590001 4.101,9.8990001 0,3.739 -1.456,7.255 -4.101,9.899 -2.643,2.645 -6.159,4.101 -9.899,4.101 z"
       inkscape:connector-curvature="0" /></g></svg>