<?xml version="1.0" encoding="UTF-8" standalone="no"?>
<svg
   xmlns:dc="http://purl.org/dc/elements/1.1/"
   xmlns:cc="http://creativecommons.org/ns#"
   xmlns:rdf="http://www.w3.org/1999/02/22-rdf-syntax-ns#"
   xmlns:svg="http://www.w3.org/2000/svg"
   xmlns="http://www.w3.org/2000/svg"
   xmlns:sodipodi="http://sodipodi.sourceforge.net/DTD/sodipodi-0.dtd"
   xmlns:inkscape="http://www.inkscape.org/namespaces/inkscape"
   enable-background="new 0 0 32 32"
   height="29"
   version="1.1"
   viewBox="0 0 38.975513 29"
   width="38.975513"
   xml:space="preserve"
   id="svg29"
   sodipodi:docname="devices.svg"
   inkscape:version="0.92.4 (5da689c313, 2019-01-14)"><metadata
     id="metadata35"><rdf:RDF><cc:Work
         rdf:about=""><dc:format>image/svg+xml</dc:format><dc:type
           rdf:resource="http://purl.org/dc/dcmitype/StillImage" /><dc:title></dc:title></cc:Work></rdf:RDF></metadata><defs
     id="defs33"><clipPath
       clipPathUnits="userSpaceOnUse"
       id="clipPath1034"><path
         style="opacity:1;fill:#ffffff;fill-opacity:1;stroke:#43434f;stroke-width:0;stroke-miterlimit:4;stroke-dasharray:none;stroke-dashoffset:0;stroke-opacity:1;paint-order:fill markers stroke"
         d="m 359.1696,643.15797 v -10.20222 l 0.16972,-6.48674 2.72077,-0.10481 0.0249,6.59155 h 20.03945 v 10.20222 z"
         id="path1036"
         inkscape:connector-curvature="0"
         sodipodi:nodetypes="cccccccc" /></clipPath></defs><sodipodi:namedview
     pagecolor="#ffffff"
     bordercolor="#666666"
     borderopacity="1"
     objecttolerance="10"
     gridtolerance="10"
     guidetolerance="10"
     inkscape:pageopacity="0"
     inkscape:pageshadow="2"
     inkscape:window-width="2560"
     inkscape:window-height="1017"
     id="namedview31"
     showgrid="false"
     fit-margin-top="0"
     fit-margin-left="0"
     fit-margin-right="0"
     fit-margin-bottom="0"
     inkscape:pagecheckerboard="true"
     inkscape:zoom="14.75"
     inkscape:cx="19.892971"
     inkscape:cy="22.695636"
     inkscape:window-x="-8"
     inkscape:window-y="-8"
     inkscape:window-maximized="1"
     inkscape:current-layer="g1096" /><g
     id="g1096"
     style="fill:#ffffff;fill-opacity:1"><g
       style="fill:#ffffff;fill-opacity:1"
       transform="translate(-1,-2)"
       id="g10"
       inkscape:export-filename="C:\Users\pavel\GitHub\TFG\Vectorials\devicespng.png"
       inkscape:export-xdpi="2687.2256"
       inkscape:export-ydpi="2687.2256"><g
         style="fill:#ffffff;fill-opacity:1"
         id="g4"><path
           d="M 1.5,20 C 1.224,20 1,19.776 1,19.5 V 3.5 C 1,2.673 1.673,2 2.5,2 h 27 C 30.327,2 31,2.673 31,3.5 V 5 C 31,5.276 30.776,5.5 30.5,5.5 30.224,5.5 30,5.276 30,5 V 3.5 C 30,3.225 29.775,3 29.5,3 H 2.5 C 2.225,3 2,3.225 2,3.5 v 16 C 2,19.776 1.776,20 1.5,20 Z"
           id="path2"
           inkscape:connector-curvature="0"
           style="fill:#ffffff;fill-opacity:1" /></g><path
         d="M 16,31 H 10.5 C 10.224,31 10,30.776 10,30.5 10,30.224 10.224,30 10.5,30 h 1 C 12.327,30 13,29.327 13,28.5 V 26 c 0,-0.276 0.224,-0.5 0.5,-0.5 0.276,0 0.5,0.224 0.5,0.5 v 2.5 c 0,0.563 -0.187,1.082 -0.501,1.5 H 16 c 0.276,0 0.5,0.224 0.5,0.5 0,0.276 -0.224,0.5 -0.5,0.5 z"
         id="path6"
         inkscape:connector-curvature="0"
         style="fill:#ffffff;fill-opacity:1" /><path
         d="M 15.5,26 H 2.5 C 1.673,26 1,25.327 1,24.5 v -3 C 1,21.224 1.224,21 1.5,21 h 14 c 0.276,0 0.5,0.224 0.5,0.5 0,0.276 -0.224,0.5 -0.5,0.5 H 2 v 2.5 C 2,24.775 2.225,25 2.5,25 h 13 c 0.276,0 0.5,0.224 0.5,0.5 0,0.276 -0.224,0.5 -0.5,0.5 z"
         id="path8"
         inkscape:connector-curvature="0"
         style="fill:#ffffff;fill-opacity:1" /></g><g
       clip-path="url(#clipPath1034)"
       id="Artboard-1"
       transform="matrix(0,0.98767334,-0.98767334,0,651.25732,-350.97766)"
       style="fill:#ffffff;fill-opacity:1;fill-rule:evenodd;stroke:none;stroke-width:1"
       inkscape:export-filename="C:\Users\pavel\GitHub\TFG\Vectorials\devicespng.png"
       inkscape:export-xdpi="2687.2256"
       inkscape:export-ydpi="2687.2256"><g
         style="fill:#ffffff;fill-opacity:1"
         id="slice"
         transform="translate(215,119)" /><path
         sodipodi:nodetypes="csccscccsccsccssccssccssssss"
         style="fill:#ffffff;fill-opacity:1"
         inkscape:connector-curvature="0"
         d="M 364,642 V 626.0345 C 364,625 365.11111,625 365.11111,625 h 11.77778 c 0,0 1.11111,0 1.11111,1.0345 L 373.12637,642 Z m 0,1 v 0.9655 C 364,645 365.11111,645 365.11111,645 h 11.77778 c 0,0 -0.65761,-5.28492 -2.49263,-3.38551 L 373.05772,643 Z m -1,-17 v 18 c 0,2 2.06061,2 2.06061,2 h 11.87878 c 0,0 2.06061,0 2.06061,-2 v -18 c 0,-2 -2.06061,-2 -2.06061,-2 h -11.87878 c 0,0 -2.06061,0 -2.06061,2 z m 8.74932,17.95001 c 0,-0.41421 -0.34682,-0.75 -0.77466,-0.75 -0.42783,0 -0.77466,0.33579 -0.77466,0.75 0,0.41422 0.34683,0.75 0.77466,0.75 0.42784,0 0.77466,-0.33578 0.77466,-0.75 z"
         id="device-tablet-ipad-horizontal-outline-stroke"
         transform="rotate(-90,371,635)" /></g><g
       style="fill:#ffffff;fill-opacity:1;stroke:#ffffff;stroke-width:0.12608378;stroke-miterlimit:4;stroke-dasharray:none;stroke-opacity:1"
       transform="matrix(0.77383948,0,0,0.77959819,14.937705,3.786456)"
       id="g26"
       inkscape:export-filename="C:\Users\pavel\GitHub\TFG\Vectorials\devicespng.png"
       inkscape:export-xdpi="2687.2256"
       inkscape:export-ydpi="2687.2256"><g
         style="fill:#ffffff;fill-opacity:1;stroke:#ffffff;stroke-width:0.12608378;stroke-miterlimit:4;stroke-dasharray:none;stroke-opacity:1"
         id="g16"><g
           style="fill:#ffffff;fill-opacity:1;stroke:#ffffff;stroke-width:0.12608378;stroke-miterlimit:4;stroke-dasharray:none;stroke-opacity:1"
           id="g14"><path
             d="m 21.5,9 h 5 C 26.776,9 27,8.776 27,8.5 27,8.224 26.776,8 26.5,8 h -5 C 21.224,8 21,8.224 21,8.5 21,8.776 21.224,9 21.5,9 Z"
             id="path12"
             inkscape:connector-curvature="0"
             style="fill:#ffffff;fill-opacity:1;stroke:#ffffff;stroke-width:0.12608378;stroke-miterlimit:4;stroke-dasharray:none;stroke-opacity:1" /></g></g><g
         style="fill:#ffffff;fill-opacity:1;stroke:#ffffff;stroke-width:0.12608378;stroke-miterlimit:4;stroke-dasharray:none;stroke-opacity:1"
         id="g22"><g
           style="fill:#ffffff;fill-opacity:1;stroke:#ffffff;stroke-width:0.12608378;stroke-miterlimit:4;stroke-dasharray:none;stroke-opacity:1"
           id="g20"><path
             d="m 23.5,29 h 1 C 24.776,29 25,28.776 25,28.5 25,28.224 24.776,28 24.5,28 h -1 c -0.276,0 -0.5,0.224 -0.5,0.5 0,0.276 0.224,0.5 0.5,0.5 z"
             id="path18"
             inkscape:connector-curvature="0"
             style="fill:#ffffff;fill-opacity:1;stroke:#ffffff;stroke-width:0.12608378;stroke-miterlimit:4;stroke-dasharray:none;stroke-opacity:1" /></g></g><path
         d="m 28.5,31 h -9 C 18.121,31 17,29.879 17,28.5 V 8.5 C 17,7.121 18.121,6 19.5,6 h 9 C 29.879,6 31,7.121 31,8.5 v 20 C 31,29.879 29.879,31 28.5,31 Z M 19.5,7 C 18.673,7 18,7.673 18,8.5 v 20 c 0,0.827 0.673,1.5 1.5,1.5 h 9 C 29.327,30 30,29.327 30,28.5 V 8.5 C 30,7.673 29.327,7 28.5,7 Z"
         id="path24"
         inkscape:connector-curvature="0"
         style="fill:#ffffff;fill-opacity:1;stroke:#ffffff;stroke-width:0.12608378;stroke-miterlimit:4;stroke-dasharray:none;stroke-opacity:1" /></g></g><ellipse
     style="opacity:1;fill:#ffffff;fill-opacity:1;stroke:#ffffff;stroke-width:0;stroke-miterlimit:4;stroke-dasharray:none;stroke-dashoffset:0;stroke-opacity:1;paint-order:fill markers stroke"
     id="path1046"
     cx="26.122002"
     cy="25.82"
     rx="0.49999982"
     ry="0.4949995"
     inkscape:export-filename="C:\Users\pavel\GitHub\TFG\Vectorials\devicespng.png"
     inkscape:export-xdpi="2687.2256"
     inkscape:export-ydpi="2687.2256" /><ellipse
     style="opacity:1;fill:#ffffff;fill-opacity:1;stroke:#ffffff;stroke-width:0;stroke-miterlimit:4;stroke-dasharray:none;stroke-dashoffset:0;stroke-opacity:1;paint-order:fill markers stroke"
     id="path1046-2"
     cx="26.122002"
     cy="22.857231"
     rx="0.49999982"
     ry="0.4949995"
     inkscape:export-filename="C:\Users\pavel\GitHub\TFG\Vectorials\devicespng.png"
     inkscape:export-xdpi="2687.2256"
     inkscape:export-ydpi="2687.2256" /><circle
     style="opacity:1;fill:#ffffff;fill-opacity:1;stroke:#ffffff;stroke-width:0;stroke-miterlimit:4;stroke-dasharray:none;stroke-dashoffset:0;stroke-opacity:1;paint-order:fill markers stroke"
     id="path1046-2-4"
     cx="31.490002"
     cy="6.6099987"
     r="0.4949995"
     inkscape:export-filename="C:\Users\pavel\GitHub\TFG\Vectorials\devicespng.png"
     inkscape:export-xdpi="2687.2256"
     inkscape:export-ydpi="2687.2256" /></svg>