<?xml version="1.0" encoding="UTF-8" standalone="no"?>
<!-- Created with Inkscape (http://www.inkscape.org/) -->

<svg
   xmlns:dc="http://purl.org/dc/elements/1.1/"
   xmlns:cc="http://creativecommons.org/ns#"
   xmlns:rdf="http://www.w3.org/1999/02/22-rdf-syntax-ns#"
   xmlns:svg="http://www.w3.org/2000/svg"
   xmlns="http://www.w3.org/2000/svg"
   xmlns:sodipodi="http://sodipodi.sourceforge.net/DTD/sodipodi-0.dtd"
   xmlns:inkscape="http://www.inkscape.org/namespaces/inkscape"
   width="300mm"
   height="329.39944mm"
   viewBox="0 0 300.00001 329.39944"
   version="1.1"
   id="svg8"
   inkscape:version="0.92.4 (5da689c313, 2019-01-14)"
   sodipodi:docname="ic_f.svg">
  <defs
     id="defs2">
    <linearGradient
       y2="122.14"
       x2="187.96001"
       y1="533.67999"
       x1="324.82999"
       gradientUnits="userSpaceOnUse"
       id="gradienta28Gg0CVeb">
      <stop
         id="stop23"
         offset="0%"
         style="stop-color: #b7ea5b;stop-opacity: 1" />
      <stop
         id="stop25"
         offset="100%"
         style="stop-color: #388e3c;stop-opacity: 1" />
    </linearGradient>
  </defs>
  <sodipodi:namedview
     id="base"
     pagecolor="#ffffff"
     bordercolor="#666666"
     borderopacity="1.0"
     inkscape:pageopacity="0.0"
     inkscape:pageshadow="2"
     inkscape:zoom="0.35"
     inkscape:cx="-888.70025"
     inkscape:cy="39.060366"
     inkscape:document-units="mm"
     inkscape:current-layer="layer1"
     showgrid="false"
     fit-margin-top="0"
     fit-margin-left="0"
     fit-margin-right="0"
     fit-margin-bottom="0"
     inkscape:window-width="1920"
     inkscape:window-height="1017"
     inkscape:window-x="2552"
     inkscape:window-y="-8"
     inkscape:window-maximized="1" />
  <metadata
     id="metadata5">
    <rdf:RDF>
      <cc:Work
         rdf:about="">
        <dc:format>image/svg+xml</dc:format>
        <dc:type
           rdf:resource="http://purl.org/dc/dcmitype/StillImage" />
        <dc:title></dc:title>
      </cc:Work>
    </rdf:RDF>
  </metadata>
  <g
     inkscape:label="Capa 1"
     inkscape:groupmode="layer"
     id="layer1"
     transform="translate(-95.284082,170.23139)">
    <g
       id="g40"
       transform="matrix(7.4346579,0,0,8.6914901,-198.79587,-514.0236)">
      <g
         id="g36">
        <path
           inkscape:connector-curvature="0"
           d="m 49.080208,65.656354 0.370417,0.05821 0.365125,0.07408 0.357187,0.08996 0.346605,0.105833 0.341312,0.119063 0.330729,0.132292 0.320146,0.14552 0.309563,0.161396 v 0 l 0.298979,0.171979 0.288396,0.182563 0.275166,0.195792 0.264584,0.20902 0.248708,0.216959 0.238125,0.227541 0.22225,0.238125 0.209021,0.248709 0.193146,0.256646 0.174625,0.264583 0.161395,0.272521 0.142875,0.280458 0.127,0.288396 0.10848,0.296333 0.08996,0.298979 0.07144,0.306917 0.05027,0.312208 0.03175,0.3175 0.01058,0.322792 -0.01058,0.322792 -0.03175,0.3175 -0.05027,0.312208 -0.07144,0.306917 -0.08996,0.301625 -0.10848,0.293687 -0.127,0.288396 -0.142875,0.280459 -0.161395,0.275166 -0.174625,0.264583 -0.193146,0.256646 -0.209021,0.246063 -0.22225,0.238125 -0.238125,0.230187 -0.248708,0.216959 -0.264584,0.206375 -0.275166,0.195791 -0.288396,0.185209 -0.298979,0.171979 -0.309563,0.15875 -0.320146,0.145521 -0.330729,0.132291 v 0 l -0.341312,0.119063 -0.346605,0.105833 v 0 l -0.357187,0.08996 -0.365125,0.07408 -0.370417,0.05821 -0.378354,0.04233 -0.383646,0.02646 -0.388937,0.0079 -0.388938,-0.0079 -0.383646,-0.02646 -0.378354,-0.04233 -0.370416,-0.05821 -0.365125,-0.07408 -0.354542,-0.08996 -0.34925,-0.105833 -0.338667,-0.119063 -0.330729,-0.132291 -0.320146,-0.145521 -0.309562,-0.15875 -0.298979,-0.171979 -0.288396,-0.185209 -0.275167,-0.195791 -0.264583,-0.206375 -0.251354,-0.216959 -0.235479,-0.230187 -0.222251,-0.238125 v 0 l -0.20902,-0.246063 -0.193146,-0.256646 -0.174625,-0.264583 -0.161396,-0.275166 -0.142875,-0.280459 -0.127,-0.288396 -0.108479,-0.293687 -0.08996,-0.301625 -0.07144,-0.306917 -0.05027,-0.312208 -0.03175,-0.3175 -0.01058,-0.322792 0.01058,-0.322792 0.03175,-0.3175 0.05027,-0.312208 0.07144,-0.306917 0.08996,-0.298979 0.108479,-0.296333 0.127,-0.288396 0.142875,-0.280458 0.161396,-0.272521 0.174625,-0.264583 0.193146,-0.256646 0.20902,-0.248709 0.222251,-0.238125 0.235479,-0.227541 v 0 l 0.251354,-0.216959 0.264583,-0.20902 0.275167,-0.195792 0.288396,-0.182563 0.298979,-0.171979 0.309562,-0.161396 0.320146,-0.14552 0.330729,-0.132292 0.338667,-0.119063 0.34925,-0.105833 0.354542,-0.08996 0.365125,-0.07408 0.370416,-0.05821 0.378354,-0.04233 0.383646,-0.02646 0.388938,-0.0079 0.388937,0.0079 0.383646,0.02646 v 0 z m 25.011063,-12.615333 0.256646,0.03175 0.254,0.04233 0.251354,0.05027 0.246062,0.05821 0.240771,0.06615 0.238125,0.07408 0.235479,0.08202 0.230188,0.0926 0.22225,0.0979 0.219604,0.105834 0.216958,0.11377 0.209021,0.119063 0.203729,0.129646 0.198438,0.134937 0.1905,0.137584 0.185208,0.148166 0.179917,0.153459 0.171979,0.15875 0.164042,0.164041 0.15875,0.171979 0.150812,0.174625 0.145521,0.182563 0.134937,0.187854 0.127,0.1905 0.121709,0.195792 0.111125,0.201083 0.103187,0.203729 0.09525,0.209021 0.08467,0.211667 0.07673,0.216958 0.06615,0.219604 0.05821,0.224896 0.04762,0.227542 0.03704,0.230187 0.0291,0.230188 0.01587,0.235479 0.0053,0.238125 -0.0026,0.238125 -0.01587,0.235479 -0.02646,0.232833 -0.0344,0.230188 -0.04498,0.227542 -0.05556,0.224896 -0.06615,0.219604 -0.07408,0.216958 -0.08467,0.214313 -0.0926,0.20902 -0.100542,0.206375 -0.111125,0.201084 -0.116416,0.195791 -0.127,0.1905 -0.134938,0.187855 -0.142875,0.182562 -0.148166,0.177271 -0.15875,0.171979 -0.164042,0.166687 -0.171979,0.158751 -0.177271,0.153458 -0.182563,0.150812 -0.1905,0.14023 -0.195791,0.134937 -0.203729,0.129646 -0.209021,0.121708 -0.211667,0.116417 -0.219604,0.105833 -0.224896,0.100542 -0.227542,0.0926 -0.232833,0.08467 -0.238125,0.07673 -0.243417,0.06879 -0.246062,0.05821 -0.248708,0.05292 -0.254,0.04233 -0.256646,0.03175 -0.259292,0.02381 -0.261937,0.01587 -0.26723,0.0079 -0.264583,-0.0053 -0.193146,-0.01058 -0.0344,0.0053 -0.137583,0.0079 -0.134937,0.0026 -25.392063,0.08731 -0.137583,-0.0026 -0.134938,-0.0079 -0.134937,-0.01323 -0.0079,-0.0026 -0.08996,0.0079 -0.264583,0.01588 -0.264584,0.0053 -0.264583,-0.0026 -0.261938,-0.01323 -0.261937,-0.02381 -0.256646,-0.03175 -0.254,-0.04233 -0.248708,-0.04762 -0.248709,-0.05821 -0.24077,-0.06615 -0.238125,-0.07673 -0.23548,-0.08202 -0.230187,-0.08996 -0.224896,-0.100542 -0.216958,-0.105833 -0.214313,-0.111125 -0.211666,-0.121708 -0.201084,-0.127 -0.198437,-0.134938 -0.193146,-0.140229 -0.185208,-0.148167 -0.177271,-0.150812 -0.174625,-0.161396 -0.164042,-0.164042 -0.15875,-0.169333 -0.150812,-0.177271 -0.142875,-0.179917 -0.137584,-0.187854 -0.127,-0.1905 -0.119062,-0.195791 -0.113771,-0.201084 -0.103188,-0.203729 -0.0926,-0.209021 -0.08731,-0.214312 -0.07673,-0.214313 -0.06615,-0.22225 -0.05556,-0.22225 -0.05027,-0.227542 -0.03704,-0.230187 -0.02646,-0.232833 -0.01588,-0.235479 -0.0079,-0.238125 0.0053,-0.23548 0.01323,-0.235479 0.02646,-0.232833 0.0344,-0.230188 0.04763,-0.227541 0.05556,-0.224896 0.0635,-0.219604 0.07673,-0.216959 0.08202,-0.214312 0.0926,-0.209021 0.103187,-0.206375 0.108479,-0.201083 0.119063,-0.195792 0.124354,-0.193146 0.134937,-0.187854 0.142875,-0.179917 0.150813,-0.17727 0.156104,-0.17198 0.164042,-0.166687 0.169333,-0.161396 0.179917,-0.153458 0.185208,-0.148167 0.1905,-0.142875 0.195792,-0.134937 0.201083,-0.127 0.209021,-0.124355 0.214312,-0.11377 0.216959,-0.105834 0.224896,-0.100541 0.227541,-0.0926 0.235479,-0.08467 0.23548,-0.07673 0.243416,-0.06879 0.246063,-0.06085 0.248708,-0.05027 0.254,-0.04233 0.256646,-0.0344 0.259292,-0.02381 0.264583,-0.01588 0.264583,-0.0053 0.264584,0.0053 0.264583,0.01323 0.08996,0.0079 0.0079,-0.0026 0.134937,-0.01323 0.134938,-0.01058 0.137583,-0.0026 25.392063,-0.08731 0.134937,0.0026 0.134938,0.0079 0.03704,0.0053 0.1905,-0.01058 0.267229,-0.0079 0.264584,0.0053 0.264583,0.01323 v 0 z m 0,-13.313834 0.256646,0.03175 0.254,0.04233 0.251354,0.04763 0.246062,0.05821 0.240771,0.06879 0.238125,0.07408 0.235479,0.08202 0.230188,0.0926 0.22225,0.0979 0.219604,0.105833 0.216958,0.113771 0.209021,0.119063 0.203729,0.127 0.198438,0.134937 0.1905,0.140229 0.185208,0.148167 0.179917,0.150812 0.171979,0.15875 0.164042,0.166688 0.15875,0.169333 0.150812,0.177271 0.145521,0.179917 0.134937,0.187854 0.127,0.1905 0.121709,0.195792 0.111125,0.201083 0.103187,0.203729 0.09525,0.209021 0.08467,0.211667 0.07673,0.219604 0.06615,0.219604 0.05821,0.224896 0.04762,0.224896 0.03704,0.230187 0.0291,0.232833 0.01587,0.23548 0.0053,0.238125 -0.0026,0.238125 -0.01587,0.235479 -0.02646,0.232833 -0.0344,0.230188 -0.04498,0.227541 -0.05556,0.22225 -0.06615,0.22225 -0.07408,0.216959 -0.08467,0.211666 -0.0926,0.209021 -0.100542,0.206375 -0.111125,0.201083 -0.116416,0.195792 -0.127,0.193146 -0.134938,0.187854 -0.142875,0.182563 -0.148166,0.17727 -0.15875,0.169334 -0.164042,0.166687 -0.171979,0.161396 -0.177271,0.153458 -0.182563,0.148167 -0.1905,0.142875 -0.195791,0.134938 -0.203729,0.129645 -0.209021,0.119063 -0.211667,0.116417 -0.219604,0.108479 -0.224896,0.0979 -0.227542,0.0926 -0.232833,0.08467 -0.238125,0.07673 -0.243417,0.06879 -0.246062,0.05821 -0.248708,0.05292 -0.254,0.04233 -0.256646,0.0344 -0.259292,0.02381 -0.261937,0.01588 -0.26723,0.0053 -0.264583,-0.0053 -0.193146,-0.0079 -0.171979,0.01323 -0.134937,0.0026 -25.392063,0.08731 -0.137583,-0.0026 -0.134938,-0.01058 -0.134937,-0.01323 h -0.0079 l -0.08996,0.0079 -0.264583,0.01588 -0.264584,0.0053 -0.264583,-0.0053 -0.261938,-0.01323 -0.261937,-0.02117 -0.256646,-0.0344 -0.254,-0.03969 -0.248708,-0.05027 -0.248709,-0.05821 -0.24077,-0.06615 -0.238125,-0.07408 -0.23548,-0.08467 -0.230187,-0.08996 -0.224896,-0.0979 -0.216958,-0.105834 -0.214313,-0.11377 -0.211666,-0.121709 -0.201084,-0.127 -0.198437,-0.132291 -0.193146,-0.142875 -0.185208,-0.145521 -0.177271,-0.153459 -0.174625,-0.15875 -0.164042,-0.164041 -0.15875,-0.171979 -0.150812,-0.174625 -0.142875,-0.182563 -0.137584,-0.185208 -0.127,-0.1905 -0.119062,-0.198438 -0.113771,-0.198437 -0.103188,-0.206375 -0.0926,-0.209021 -0.08731,-0.211667 -0.07673,-0.216958 -0.06615,-0.219604 -0.05556,-0.224896 -0.05027,-0.227542 -0.03704,-0.227541 -0.02646,-0.232834 -0.01588,-0.235479 -0.0079,-0.238125 0.0053,-0.238125 0.01323,-0.235479 0.02646,-0.232833 0.0344,-0.230188 0.04763,-0.227542 0.05556,-0.224895 0.0635,-0.219605 0.07673,-0.216958 0.08202,-0.214312 0.0926,-0.209021 0.103187,-0.203729 0.108479,-0.201084 0.119063,-0.198437 0.124354,-0.1905 0.134937,-0.187854 0.142875,-0.182563 0.150813,-0.177271 0.156104,-0.171979 0.164042,-0.166687 0.169333,-0.15875 0.179917,-0.156105 0.185208,-0.14552 0.1905,-0.142875 0.195792,-0.134938 0.201083,-0.129646 0.209021,-0.121708 0.214312,-0.113771 0.216959,-0.108479 0.224896,-0.100542 0.227541,-0.08996 0.235479,-0.08467 0.23548,-0.07673 0.243416,-0.06879 0.246063,-0.06085 0.248708,-0.05027 0.254,-0.04233 0.256646,-0.0344 0.259292,-0.02381 0.264583,-0.01588 0.264583,-0.0053 0.264584,0.0026 0.264583,0.01323 0.08996,0.0079 0.0079,-0.0026 0.134937,-0.01323 0.134938,-0.01058 0.137583,-0.0026 25.392063,-0.08467 0.134937,0.0026 0.134938,0.0079 0.03704,0.0026 0.1905,-0.01058 0.267229,-0.0053 0.264584,0.0053 0.264583,0.01058 v 0 z"
           id="use30"
           style="fill:url(#gradienta28Gg0CVeb);stroke-width:0.26458332" />
        <g
           id="g34">
          <path
             inkscape:connector-curvature="0"
             d="m 49.080208,65.656354 0.370417,0.05821 0.365125,0.07408 0.357187,0.08996 0.346605,0.105833 0.341312,0.119063 0.330729,0.132292 0.320146,0.14552 0.309563,0.161396 v 0 l 0.298979,0.171979 0.288396,0.182563 0.275166,0.195792 0.264584,0.20902 0.248708,0.216959 0.238125,0.227541 0.22225,0.238125 0.209021,0.248709 0.193146,0.256646 0.174625,0.264583 0.161395,0.272521 0.142875,0.280458 0.127,0.288396 0.10848,0.296333 0.08996,0.298979 0.07144,0.306917 0.05027,0.312208 0.03175,0.3175 0.01058,0.322792 -0.01058,0.322792 -0.03175,0.3175 -0.05027,0.312208 -0.07144,0.306917 -0.08996,0.301625 -0.10848,0.293687 -0.127,0.288396 -0.142875,0.280459 -0.161395,0.275166 -0.174625,0.264583 -0.193146,0.256646 -0.209021,0.246063 -0.22225,0.238125 -0.238125,0.230187 -0.248708,0.216959 -0.264584,0.206375 -0.275166,0.195791 -0.288396,0.185209 -0.298979,0.171979 -0.309563,0.15875 -0.320146,0.145521 -0.330729,0.132291 v 0 l -0.341312,0.119063 -0.346605,0.105833 v 0 l -0.357187,0.08996 -0.365125,0.07408 -0.370417,0.05821 -0.378354,0.04233 -0.383646,0.02646 -0.388937,0.0079 -0.388938,-0.0079 -0.383646,-0.02646 -0.378354,-0.04233 -0.370416,-0.05821 -0.365125,-0.07408 -0.354542,-0.08996 -0.34925,-0.105833 -0.338667,-0.119063 -0.330729,-0.132291 -0.320146,-0.145521 -0.309562,-0.15875 -0.298979,-0.171979 -0.288396,-0.185209 -0.275167,-0.195791 -0.264583,-0.206375 -0.251354,-0.216959 -0.235479,-0.230187 -0.222251,-0.238125 v 0 l -0.20902,-0.246063 -0.193146,-0.256646 -0.174625,-0.264583 -0.161396,-0.275166 -0.142875,-0.280459 -0.127,-0.288396 -0.108479,-0.293687 -0.08996,-0.301625 -0.07144,-0.306917 -0.05027,-0.312208 -0.03175,-0.3175 -0.01058,-0.322792 0.01058,-0.322792 0.03175,-0.3175 0.05027,-0.312208 0.07144,-0.306917 0.08996,-0.298979 0.108479,-0.296333 0.127,-0.288396 0.142875,-0.280458 0.161396,-0.272521 0.174625,-0.264583 0.193146,-0.256646 0.20902,-0.248709 0.222251,-0.238125 0.235479,-0.227541 v 0 l 0.251354,-0.216959 0.264583,-0.20902 0.275167,-0.195792 0.288396,-0.182563 0.298979,-0.171979 0.309562,-0.161396 0.320146,-0.14552 0.330729,-0.132292 0.338667,-0.119063 0.34925,-0.105833 0.354542,-0.08996 0.365125,-0.07408 0.370416,-0.05821 0.378354,-0.04233 0.383646,-0.02646 0.388938,-0.0079 0.388937,0.0079 0.383646,0.02646 v 0 z m 25.011063,-12.615333 0.256646,0.03175 0.254,0.04233 0.251354,0.05027 0.246062,0.05821 0.240771,0.06615 0.238125,0.07408 0.235479,0.08202 0.230188,0.0926 0.22225,0.0979 0.219604,0.105834 0.216958,0.11377 0.209021,0.119063 0.203729,0.129646 0.198438,0.134937 0.1905,0.137584 0.185208,0.148166 0.179917,0.153459 0.171979,0.15875 0.164042,0.164041 0.15875,0.171979 0.150812,0.174625 0.145521,0.182563 0.134937,0.187854 0.127,0.1905 0.121709,0.195792 0.111125,0.201083 0.103187,0.203729 0.09525,0.209021 0.08467,0.211667 0.07673,0.216958 0.06615,0.219604 0.05821,0.224896 0.04762,0.227542 0.03704,0.230187 0.0291,0.230188 0.01587,0.235479 0.0053,0.238125 -0.0026,0.238125 -0.01587,0.235479 -0.02646,0.232833 -0.0344,0.230188 -0.04498,0.227542 -0.05556,0.224896 -0.06615,0.219604 -0.07408,0.216958 -0.08467,0.214313 -0.0926,0.20902 -0.100542,0.206375 -0.111125,0.201084 -0.116416,0.195791 -0.127,0.1905 -0.134938,0.187855 -0.142875,0.182562 -0.148166,0.177271 -0.15875,0.171979 -0.164042,0.166687 -0.171979,0.158751 -0.177271,0.153458 -0.182563,0.150812 -0.1905,0.14023 -0.195791,0.134937 -0.203729,0.129646 -0.209021,0.121708 -0.211667,0.116417 -0.219604,0.105833 -0.224896,0.100542 -0.227542,0.0926 -0.232833,0.08467 -0.238125,0.07673 -0.243417,0.06879 -0.246062,0.05821 -0.248708,0.05292 -0.254,0.04233 -0.256646,0.03175 -0.259292,0.02381 -0.261937,0.01587 -0.26723,0.0079 -0.264583,-0.0053 -0.193146,-0.01058 -0.0344,0.0053 -0.137583,0.0079 -0.134937,0.0026 -25.392063,0.08731 -0.137583,-0.0026 -0.134938,-0.0079 -0.134937,-0.01323 -0.0079,-0.0026 -0.08996,0.0079 -0.264583,0.01588 -0.264584,0.0053 -0.264583,-0.0026 -0.261938,-0.01323 -0.261937,-0.02381 -0.256646,-0.03175 -0.254,-0.04233 -0.248708,-0.04762 -0.248709,-0.05821 -0.24077,-0.06615 -0.238125,-0.07673 -0.23548,-0.08202 -0.230187,-0.08996 -0.224896,-0.100542 -0.216958,-0.105833 -0.214313,-0.111125 -0.211666,-0.121708 -0.201084,-0.127 -0.198437,-0.134938 -0.193146,-0.140229 -0.185208,-0.148167 -0.177271,-0.150812 -0.174625,-0.161396 -0.164042,-0.164042 -0.15875,-0.169333 -0.150812,-0.177271 -0.142875,-0.179917 -0.137584,-0.187854 -0.127,-0.1905 -0.119062,-0.195791 -0.113771,-0.201084 -0.103188,-0.203729 -0.0926,-0.209021 -0.08731,-0.214312 -0.07673,-0.214313 -0.06615,-0.22225 -0.05556,-0.22225 -0.05027,-0.227542 -0.03704,-0.230187 -0.02646,-0.232833 -0.01588,-0.235479 -0.0079,-0.238125 0.0053,-0.23548 0.01323,-0.235479 0.02646,-0.232833 0.0344,-0.230188 0.04763,-0.227541 0.05556,-0.224896 0.0635,-0.219604 0.07673,-0.216959 0.08202,-0.214312 0.0926,-0.209021 0.103187,-0.206375 0.108479,-0.201083 0.119063,-0.195792 0.124354,-0.193146 0.134937,-0.187854 0.142875,-0.179917 0.150813,-0.17727 0.156104,-0.17198 0.164042,-0.166687 0.169333,-0.161396 0.179917,-0.153458 0.185208,-0.148167 0.1905,-0.142875 0.195792,-0.134937 0.201083,-0.127 0.209021,-0.124355 0.214312,-0.11377 0.216959,-0.105834 0.224896,-0.100541 0.227541,-0.0926 0.235479,-0.08467 0.23548,-0.07673 0.243416,-0.06879 0.246063,-0.06085 0.248708,-0.05027 0.254,-0.04233 0.256646,-0.0344 0.259292,-0.02381 0.264583,-0.01588 0.264583,-0.0053 0.264584,0.0053 0.264583,0.01323 0.08996,0.0079 0.0079,-0.0026 0.134937,-0.01323 0.134938,-0.01058 0.137583,-0.0026 25.392063,-0.08731 0.134937,0.0026 0.134938,0.0079 0.03704,0.0053 0.1905,-0.01058 0.267229,-0.0079 0.264584,0.0053 0.264583,0.01323 v 0 z m 0,-13.313834 0.256646,0.03175 0.254,0.04233 0.251354,0.04763 0.246062,0.05821 0.240771,0.06879 0.238125,0.07408 0.235479,0.08202 0.230188,0.0926 0.22225,0.0979 0.219604,0.105833 0.216958,0.113771 0.209021,0.119063 0.203729,0.127 0.198438,0.134937 0.1905,0.140229 0.185208,0.148167 0.179917,0.150812 0.171979,0.15875 0.164042,0.166688 0.15875,0.169333 0.150812,0.177271 0.145521,0.179917 0.134937,0.187854 0.127,0.1905 0.121709,0.195792 0.111125,0.201083 0.103187,0.203729 0.09525,0.209021 0.08467,0.211667 0.07673,0.219604 0.06615,0.219604 0.05821,0.224896 0.04762,0.224896 0.03704,0.230187 0.0291,0.232833 0.01587,0.23548 0.0053,0.238125 -0.0026,0.238125 -0.01587,0.235479 -0.02646,0.232833 -0.0344,0.230188 -0.04498,0.227541 -0.05556,0.22225 -0.06615,0.22225 -0.07408,0.216959 -0.08467,0.211666 -0.0926,0.209021 -0.100542,0.206375 -0.111125,0.201083 -0.116416,0.195792 -0.127,0.193146 -0.134938,0.187854 -0.142875,0.182563 -0.148166,0.17727 -0.15875,0.169334 -0.164042,0.166687 -0.171979,0.161396 -0.177271,0.153458 -0.182563,0.148167 -0.1905,0.142875 -0.195791,0.134938 -0.203729,0.129645 -0.209021,0.119063 -0.211667,0.116417 -0.219604,0.108479 -0.224896,0.0979 -0.227542,0.0926 -0.232833,0.08467 -0.238125,0.07673 -0.243417,0.06879 -0.246062,0.05821 -0.248708,0.05292 -0.254,0.04233 -0.256646,0.0344 -0.259292,0.02381 -0.261937,0.01588 -0.26723,0.0053 -0.264583,-0.0053 -0.193146,-0.0079 -0.171979,0.01323 -0.134937,0.0026 -25.392063,0.08731 -0.137583,-0.0026 -0.134938,-0.01058 -0.134937,-0.01323 h -0.0079 l -0.08996,0.0079 -0.264583,0.01588 -0.264584,0.0053 -0.264583,-0.0053 -0.261938,-0.01323 -0.261937,-0.02117 -0.256646,-0.0344 -0.254,-0.03969 -0.248708,-0.05027 -0.248709,-0.05821 -0.24077,-0.06615 -0.238125,-0.07408 -0.23548,-0.08467 -0.230187,-0.08996 -0.224896,-0.0979 -0.216958,-0.105834 -0.214313,-0.11377 -0.211666,-0.121709 -0.201084,-0.127 -0.198437,-0.132291 -0.193146,-0.142875 -0.185208,-0.145521 -0.177271,-0.153459 -0.174625,-0.15875 -0.164042,-0.164041 -0.15875,-0.171979 -0.150812,-0.174625 -0.142875,-0.182563 -0.137584,-0.185208 -0.127,-0.1905 -0.119062,-0.198438 -0.113771,-0.198437 -0.103188,-0.206375 -0.0926,-0.209021 -0.08731,-0.211667 -0.07673,-0.216958 -0.06615,-0.219604 -0.05556,-0.224896 -0.05027,-0.227542 -0.03704,-0.227541 -0.02646,-0.232834 -0.01588,-0.235479 -0.0079,-0.238125 0.0053,-0.238125 0.01323,-0.235479 0.02646,-0.232833 0.0344,-0.230188 0.04763,-0.227542 0.05556,-0.224895 0.0635,-0.219605 0.07673,-0.216958 0.08202,-0.214312 0.0926,-0.209021 0.103187,-0.203729 0.108479,-0.201084 0.119063,-0.198437 0.124354,-0.1905 0.134937,-0.187854 0.142875,-0.182563 0.150813,-0.177271 0.156104,-0.171979 0.164042,-0.166687 0.169333,-0.15875 0.179917,-0.156105 0.185208,-0.14552 0.1905,-0.142875 0.195792,-0.134938 0.201083,-0.129646 0.209021,-0.121708 0.214312,-0.113771 0.216959,-0.108479 0.224896,-0.100542 0.227541,-0.08996 0.235479,-0.08467 0.23548,-0.07673 0.243416,-0.06879 0.246063,-0.06085 0.248708,-0.05027 0.254,-0.04233 0.256646,-0.0344 0.259292,-0.02381 0.264583,-0.01588 0.264583,-0.0053 0.264584,0.0026 0.264583,0.01323 0.08996,0.0079 0.0079,-0.0026 0.134937,-0.01323 0.134938,-0.01058 0.137583,-0.0026 25.392063,-0.08467 0.134937,0.0026 0.134938,0.0079 0.03704,0.0026 0.1905,-0.01058 0.267229,-0.0053 0.264584,0.0053 0.264583,0.01058 v 0 z"
             id="use32"
             style="fill-opacity:0;stroke:#000000;stroke-width:0.26458332;stroke-opacity:0" />
        </g>
      </g>
    </g>
  </g>
</svg>
