<?xml version="1.0" encoding="UTF-8" standalone="no"?>
<svg
   xmlns:dc="http://purl.org/dc/elements/1.1/"
   xmlns:cc="http://creativecommons.org/ns#"
   xmlns:rdf="http://www.w3.org/1999/02/22-rdf-syntax-ns#"
   xmlns:svg="http://www.w3.org/2000/svg"
   xmlns="http://www.w3.org/2000/svg"
   xmlns:xlink="http://www.w3.org/1999/xlink"
   xmlns:sodipodi="http://sodipodi.sourceforge.net/DTD/sodipodi-0.dtd"
   xmlns:inkscape="http://www.inkscape.org/namespaces/inkscape"
   version="1.1"
   preserveAspectRatio="xMidYMid meet"
   viewBox="0 0 530.14476 350"
   width="530.14478"
   height="350"
   id="svg22"
   sodipodi:docname="ic_logo_rec.svg"
   inkscape:version="0.92.4 (5da689c313, 2019-01-14)"
   inkscape:export-filename="C:\Users\pavel\GitHub\TFG\Vectorials\favicon_black.png"
   inkscape:export-xdpi="195.632"
   inkscape:export-ydpi="195.632">
  <metadata
     id="metadata26">
    <rdf:RDF>
      <cc:Work
         rdf:about="">
        <dc:format>image/svg+xml</dc:format>
        <dc:type
           rdf:resource="http://purl.org/dc/dcmitype/StillImage" />
        <dc:title />
      </cc:Work>
    </rdf:RDF>
  </metadata>
  <sodipodi:namedview
     pagecolor="#ffffff"
     bordercolor="#666666"
     borderopacity="1"
     objecttolerance="10"
     gridtolerance="10"
     guidetolerance="10"
     inkscape:pageopacity="0"
     inkscape:pageshadow="2"
     inkscape:window-width="1920"
     inkscape:window-height="1017"
     id="namedview24"
     showgrid="false"
     fit-margin-top="0"
     fit-margin-left="0"
     fit-margin-right="0"
     fit-margin-bottom="0"
     inkscape:zoom="0.74167645"
     inkscape:cx="200.29882"
     inkscape:cy="459.64925"
     inkscape:window-x="2552"
     inkscape:window-y="78"
     inkscape:window-maximized="1"
     inkscape:current-layer="g16" />
  <defs
     id="defs8">
    <path
       d="m 65.03,267.12 1.37,0.28 1.35,0.34 1.32,0.4 1.28,0.45 1.25,0.5 1.21,0.55 1.18,0.61 1.13,0.65 1.09,0.69 1.04,0.74 0.99,0.79 0.95,0.82 0.89,0.86 0.85,0.9 0.78,0.94 0.73,0.97 0.67,1 0.61,1.03 v 0 l 0.54,1.06 0.48,1.09 0.41,1.12 0.34,1.13 0.26,1.16 0.2,1.18 0.12,1.2 0.03,1.22 -0.03,1.22 -0.12,1.2 v 0 l -0.2,1.18 -0.26,1.16 -0.34,1.14 -0.41,1.11 -0.48,1.09 -0.54,1.06 -0.61,1.04 -0.67,1 -0.73,0.97 -0.78,0.93 -0.85,0.9 -0.89,0.87 -0.95,0.82 -0.99,0.78 -1.04,0.74 -1.09,0.7 -1.13,0.65 -1.18,0.6 -1.21,0.55 -1.25,0.5 -1.28,0.45 -1.32,0.4 v 0 l -1.35,0.34 -1.37,0.28 -1.4,0.22 -1.43,0.16 -1.45,0.1 -1.47,0.03 -1.48,-0.03 -1.45,-0.1 -1.42,-0.16 -1.4,-0.22 -1.38,-0.28 -1.35,-0.34 -1.31,-0.4 -1.29,-0.45 -1.24,-0.5 -1.22,-0.55 -1.17,-0.6 -1.13,-0.65 -1.09,-0.7 -1.04,-0.74 v 0 l -0.99,-0.78 -0.95,-0.82 -0.9,-0.87 -0.84,-0.9 -0.78,-0.93 -0.73,-0.97 -0.67,-1 -0.61,-1.04 -0.54,-1.06 -0.48,-1.09 -0.41,-1.11 -0.34,-1.14 -0.26,-1.16 -0.2,-1.18 -0.12,-1.2 -0.03,-1.22 0.03,-1.22 0.12,-1.2 0.2,-1.18 0.26,-1.16 0.34,-1.13 0.41,-1.12 0.48,-1.09 0.54,-1.06 0.61,-1.03 0.67,-1 0.73,-0.97 0.78,-0.94 0.84,-0.9 0.9,-0.86 0.95,-0.82 0.99,-0.79 1.04,-0.74 1.09,-0.69 1.13,-0.65 1.17,-0.61 1.22,-0.55 1.24,-0.5 1.29,-0.45 1.31,-0.4 v 0 l 1.35,-0.34 1.38,-0.28 1.4,-0.22 1.42,-0.16 1.45,-0.1 1.48,-0.03 1.47,0.03 1.45,0.1 1.43,0.16 v 0 z m 882.53,-0.05 1.37,0.28 1.35,0.34 1.32,0.4 1.28,0.45 1.25,0.5 1.21,0.55 1.18,0.61 1.13,0.65 1.08,0.69 1.05,0.74 0.99,0.79 0.95,0.82 0.89,0.86 0.85,0.9 0.78,0.94 0.73,0.97 0.67,1 0.61,1.03 0.54,1.06 0.48,1.09 0.41,1.12 0.34,1.13 0.26,1.16 0.2,1.18 0.11,1.2 0.04,1.22 -0.04,1.22 -0.11,1.2 -0.2,1.18 -0.26,1.16 -0.34,1.14 -0.41,1.11 -0.48,1.09 -0.54,1.06 -0.61,1.04 -0.67,1 -0.73,0.97 -0.78,0.93 -0.85,0.9 -0.89,0.87 -0.95,0.82 -0.99,0.78 -1.05,0.74 -1.08,0.7 -1.13,0.65 -1.18,0.6 -1.21,0.55 -1.25,0.5 -1.28,0.45 -1.32,0.4 -1.35,0.34 -1.37,0.28 -1.41,0.22 -1.42,0.16 -1.45,0.1 -1.48,0.03 -1.47,-0.03 -1.45,-0.1 -1.42,-0.16 -1.41,-0.22 -1.37,-0.28 -1.35,-0.34 -1.31,-0.4 -1.29,-0.45 -1.25,-0.5 -1.21,-0.55 -1.17,-0.6 -1.13,-0.65 -1.09,-0.7 -1.04,-0.74 -1,-0.78 -0.94,-0.82 -0.9,-0.87 -0.84,-0.9 -0.78,-0.93 -0.73,-0.97 -0.67,-1 -0.61,-1.04 -0.54,-1.06 -0.48,-1.09 -0.41,-1.11 -0.34,-1.14 -0.26,-1.16 -0.2,-1.18 -0.12,-1.2 -0.04,-1.22 0.04,-1.22 0.12,-1.2 0.2,-1.18 0.26,-1.16 0.34,-1.13 0.41,-1.12 0.48,-1.09 0.54,-1.06 0.61,-1.03 0.67,-1 0.73,-0.97 0.78,-0.94 v 0 l 0.84,-0.9 0.9,-0.86 0.42,-0.37 0.52,-0.45 1,-0.79 1.04,-0.74 1.09,-0.69 1.13,-0.65 1.17,-0.61 1.21,-0.55 1.25,-0.5 1.29,-0.45 1.31,-0.4 v 0 l 1.35,-0.34 1.37,-0.28 1.41,-0.22 1.42,-0.16 1.45,-0.1 1.47,-0.03 1.48,0.03 1.45,0.1 1.42,0.16 v 0 z M 544.65,168.76 545,168.75 h 26.12 l 0.35,0.01 0.36,0.03 0.36,0.04 0.34,0.05 0.34,0.07 0.03,0.01 2.57,-0.05 2.95,0.06 2.9,0.17 2.88,0.29 2.86,0.4 2.8,0.51 2.77,0.61 2.73,0.72 2.68,0.82 2.64,0.92 2.57,1.02 2.54,1.11 2.49,1.2 2.42,1.3 2.37,1.39 2.32,1.47 2.25,1.55 2.17,1.64 2.13,1.72 2.04,1.79 1.97,1.87 1.9,1.94 1.84,2.01 1.74,2.08 1.66,2.15 1.59,2.21 1.5,2.27 1.4,2.33 1.33,2.38 1.23,2.44 1.13,2.5 1.02,2.54 0.94,2.59 0.83,2.63 0.75,2.68 0.62,2.72 0.51,2.76 0.4,2.8 0.31,2.83 0.16,2.86 0.07,2.89 -0.07,2.89 -0.16,2.86 -0.31,2.83 -0.4,2.79 -0.51,2.76 -0.62,2.72 -0.75,2.68 -0.83,2.64 -0.94,2.58 -1.02,2.55 -1.13,2.49 -1.23,2.44 -1.33,2.39 -1.4,2.33 -1.5,2.27 -1.59,2.21 -1.66,2.14 -1.74,2.08 -1.84,2.01 -1.9,1.94 -1.97,1.87 -2.04,1.8 -2.13,1.71 -2.17,1.64 -2.04,1.41 -0.45,0.3 -0.01,0.01 -2.45,1.49 -2.5,1.4 -2.56,1.31 -2.64,1.23 -2.68,1.12 -2.73,1.04 -2.79,0.93 -2.84,0.83 -2.88,0.74 -2.78,0.59 -0.94,0.17 -0.35,0.06 -2.8,0.39 -2.88,0.29 -2.9,0.18 -2.95,0.06 -1.68,-0.04 h -0.01 l -0.34,0.1 -0.32,0.09 -0.34,0.07 -0.34,0.06 -0.36,0.04 -0.36,0.02 -0.35,0.01 h -26.12 l -0.35,-0.01 -0.36,-0.02 -0.35,-0.04 -0.05,-0.01 -0.66,0.05 -1.42,0.03 -1.42,-0.03 -1.42,-0.11 -1.37,-0.17 -1.37,-0.23 -1.31,-0.3 -1.3,-0.36 -1.26,-0.41 -1.23,-0.47 -1.19,-0.53 -1.15,-0.58 -1.12,-0.64 -1.05,-0.68 -1.02,-0.72 -0.97,-0.78 -0.92,-0.81 -0.86,-0.86 -0.81,-0.9 -0.75,-0.93 -0.68,-0.97 -0.64,-1.01 -0.55,-1.03 -0.5,-1.07 -0.43,-1.09 -0.34,-1.12 -0.27,-1.14 -0.21,-1.17 -0.13,-1.18 -0.04,-1.21 0.04,-1.2 0.13,-1.19 0.21,-1.16 0.27,-1.14 0.34,-1.12 0.43,-1.1 0.5,-1.06 0.55,-1.04 0.64,-1 0.68,-0.97 0.75,-0.93 0.81,-0.9 0.86,-0.86 0.92,-0.81 0.97,-0.78 1.02,-0.73 1.05,-0.68 1.12,-0.63 1.15,-0.58 1.19,-0.53 1.23,-0.47 1.26,-0.41 1.3,-0.36 1.31,-0.3 1.37,-0.23 1.37,-0.17 1.42,-0.1 1.42,-0.04 1.42,0.04 0.65,0.04 0.06,-0.01 0.35,-0.04 0.36,-0.02 0.35,-0.01 h 26.12 l 0.35,0.01 0.36,0.02 0.36,0.04 0.34,0.06 v -0.01 l 1.04,-0.09 1.32,-0.16 1.3,-0.22 1.28,-0.25 1.26,-0.3 1.25,-0.34 1.22,-0.38 1.21,-0.42 1.17,-0.46 1.15,-0.5 1.13,-0.54 1.09,-0.58 1.09,-0.61 1.03,-0.64 1.01,-0.68 0.98,-0.71 0.95,-0.75 0.93,-0.77 0.87,-0.81 0.85,-0.83 0.8,-0.86 0.78,-0.89 0.73,-0.92 0.71,-0.94 0.64,-0.96 0.62,-0.99 0.56,-1.01 0.53,-1.04 0.48,-1.05 0.43,-1.08 0.39,-1.09 0.35,-1.11 0.27,-1.13 0.25,-1.14 0.2,-1.16 0.13,-1.18 0.08,-1.18 0.03,-1.15 v -0.05 l 0.02,-1.2 -0.03,-1.2 -0.09,-1.19 -0.13,-1.18 -0.19,-1.16 -0.24,-1.15 -0.28,-1.13 -0.33,-1.12 -0.39,-1.09 -0.42,-1.08 -0.48,-1.06 -0.51,-1.03 -0.54,-1.02 -0.6,-0.99 -0.64,-0.97 -0.68,-0.94 -0.72,-0.92 -0.75,-0.89 -0.79,-0.86 -0.82,-0.84 -0.87,-0.8 -0.9,-0.78 -0.91,-0.74 -0.96,-0.72 -0.98,-0.68 -1.02,-0.64 -1.04,-0.61 -1.07,-0.57 -1.1,-0.54 -1.12,-0.5 -1.14,-0.46 -1.18,-0.42 -1.18,-0.38 -1.21,-0.34 -1.23,-0.3 -1.25,-0.25 -1.26,-0.21 -1.29,-0.16 -1.29,-0.11 -0.13,-0.01 v -0.04 l -0.28,0.07 -0.34,0.07 -0.34,0.05 -0.36,0.04 -0.36,0.03 -0.35,0.01 H 545 l -0.35,-0.01 -0.36,-0.03 -0.35,-0.04 -0.05,-0.01 -0.66,0.05 -1.42,0.04 -1.42,-0.04 -1.42,-0.1 -1.37,-0.17 -1.37,-0.24 -1.31,-0.29 -1.3,-0.36 -1.26,-0.42 -1.23,-0.47 -1.19,-0.53 -1.15,-0.58 -1.12,-0.63 -1.05,-0.68 -1.02,-0.73 -0.97,-0.77 -0.92,-0.82 -0.86,-0.86 -0.81,-0.89 -0.75,-0.94 -0.68,-0.97 -0.64,-1 -0.55,-1.04 -0.5,-1.06 -0.43,-1.1 -0.34,-1.11 -0.27,-1.15 -0.21,-1.16 -0.13,-1.19 -0.04,-1.2 0.04,-1.2 0.13,-1.19 0.21,-1.16 0.27,-1.15 0.34,-1.12 0.43,-1.09 0.5,-1.06 0.55,-1.04 0.64,-1 0.68,-0.97 0.75,-0.94 0.81,-0.9 0.86,-0.85 0.92,-0.82 0.97,-0.77 1.02,-0.73 1.05,-0.68 1.12,-0.63 1.15,-0.58 1.19,-0.53 1.23,-0.47 1.26,-0.42 1.3,-0.36 1.31,-0.29 1.37,-0.24 1.37,-0.17 1.42,-0.1 1.42,-0.03 1.42,0.03 0.64,0.05 0.07,-0.01 0.35,-0.04 v 0 z m 294.4,97.65 0.96,0.15 0.94,0.19 0.93,0.22 0.92,0.24 0.9,0.28 0.88,0.3 0.87,0.34 0.85,0.37 0.83,0.39 0.81,0.42 0.79,0.45 0.77,0.48 0.75,0.49 0.72,0.52 0.71,0.55 0.67,0.57 0.65,0.59 0.63,0.61 0.6,0.64 0.57,0.65 0.54,0.68 0.51,0.68 0.49,0.72 0.45,0.73 0.42,0.74 0.39,0.76 0.36,0.78 0.32,0.78 0.29,0.81 0.26,0.82 0.21,0.83 0.18,0.84 0.15,0.86 0.1,0.86 0.06,0.87 0.03,0.89 -0.02,0.88 -0.03,0.5 -0.03,0.38 -0.09,0.86 -0.14,0.86 -0.17,0.84 -0.21,0.83 -0.24,0.82 -0.29,0.81 -0.19,0.49 -0.12,0.29 -0.36,0.78 -0.38,0.78 -0.41,0.74 -0.45,0.73 -0.48,0.71 -0.51,0.7 -0.53,0.68 -0.57,0.65 -0.59,0.64 -0.62,0.62 -0.65,0.59 -0.67,0.57 -0.7,0.56 -0.72,0.52 -0.74,0.5 -0.76,0.49 -0.79,0.45 -0.81,0.42 -0.83,0.4 -0.84,0.38 -0.86,0.34 -0.89,0.32 -0.27,0.08 -0.63,0.2 -0.91,0.25 -0.6,0.14 -0.33,0.08 -0.94,0.19 -0.96,0.17 -0.97,0.11 -0.99,0.09 -0.99,0.06 -1,0.02 -1,-0.01 -0.73,-0.04 -0.13,0.02 -0.52,0.03 -0.52,0.01 -95.97,0.33 -0.51,-0.01 -0.51,-0.03 -0.51,-0.05 -0.04,-0.01 -0.33,0.03 -1,0.06 -1,0.02 -1.01,-0.01 -0.99,-0.06 -0.98,-0.08 -0.97,-0.12 -0.96,-0.16 -0.95,-0.18 -0.93,-0.21 -0.92,-0.25 -0.9,-0.28 -0.88,-0.31 -0.87,-0.34 -0.85,-0.36 -0.83,-0.4 -0.81,-0.41 -0.79,-0.45 -0.77,-0.47 -0.75,-0.5 -0.72,-0.53 -0.7,-0.55 -0.68,-0.56 -0.5,-0.46 -0.15,-0.14 -0.63,-0.61 -0.6,-0.62 -0.56,-0.66 -0.55,-0.68 -0.52,-0.69 -0.48,-0.71 -0.45,-0.72 -0.42,-0.75 -0.39,-0.76 -0.36,-0.77 -0.32,-0.8 -0.29,-0.8 -0.25,-0.82 -0.22,-0.83 -0.18,-0.84 -0.14,-0.86 -0.11,-0.86 -0.06,-0.88 -0.01,-0.5 -0.01,-0.38 0.01,-0.89 0.06,-0.86 0.1,-0.87 0.13,-0.85 0.17,-0.85 0.21,-0.83 0.25,-0.82 0.28,-0.8 0.31,-0.8 0.36,-0.78 0.38,-0.76 0.41,-0.75 0.3,-0.48 0.15,-0.25 0.48,-0.71 0.51,-0.7 0.39,-0.47 0.15,-0.2 0.56,-0.66 0.59,-0.64 0.62,-0.62 0.65,-0.6 0.54,-0.45 0.14,-0.12 0.69,-0.55 0.72,-0.53 0.74,-0.5 0.77,-0.47 0.79,-0.46 0.8,-0.43 0.83,-0.39 0.85,-0.38 0.86,-0.34 0.88,-0.31 0.9,-0.29 0.91,-0.25 0.93,-0.23 0.95,-0.18 0.96,-0.16 0.96,-0.13 0.99,-0.09 0.99,-0.06 1,-0.02 1.01,0.01 0.99,0.06 0.34,0.02 h 0.04 l 0.5,-0.05 0.52,-0.04 0.51,-0.01 95.97,-0.32 0.52,0.01 0.51,0.03 0.14,0.02 0.72,-0.05 1.01,-0.02 1,0.02 0.99,0.05 0.99,0.08 v 0 z m 305.45,-97.21 0.84,0.17 0.85,0.2 0.82,0.24 0.81,0.27 0.8,0.31 0.79,0.33 0.77,0.36 0.75,0.4 0.74,0.42 0.72,0.45 0.7,0.48 0.69,0.51 0.66,0.53 0.64,0.56 0.62,0.58 0.6,0.61 0.58,0.63 0.55,0.65 0.53,0.67 0.51,0.7 0.47,0.72 0.46,0.73 0.42,0.76 0.4,0.77 0.37,0.79 0.34,0.82 0.31,0.82 0.28,0.84 0.25,0.86 0.22,0.86 0.18,0.89 0.15,0.89 0.11,0.92 0.09,0.91 0.05,0.93 v 0.93 l -0.02,0.68 0.02,0.12 0.05,0.48 0.02,0.48 2.63,88.99 0.01,0.48 -0.03,0.48 -0.03,0.47 -0.01,0.03 0.04,0.31 0.08,0.93 0.05,0.92 0.01,0.93 -0.03,0.93 -0.06,0.91 -0.1,0.91 -0.13,0.89 -0.17,0.88 -0.19,0.87 -0.23,0.86 -0.27,0.84 -0.29,0.83 -0.32,0.82 -0.35,0.8 -0.38,0.77 -0.41,0.77 -0.44,0.74 -0.46,0.73 -0.49,0.71 -0.51,0.69 -0.54,0.66 -0.56,0.64 -0.59,0.62 -0.61,0.6 -0.63,0.58 -0.65,0.54 -0.67,0.53 -0.69,0.5 -0.71,0.46 -0.73,0.44 -0.75,0.41 -0.76,0.39 -0.78,0.35 -0.8,0.33 -0.81,0.28 -0.83,0.26 -0.83,0.23 -0.86,0.19 -0.86,0.15 -0.88,0.13 -0.89,0.08 -0.89,0.05 h -0.9 l -0.89,-0.02 -0.88,-0.07 -0.88,-0.1 -0.86,-0.13 -0.85,-0.18 -0.84,-0.2 -0.83,-0.24 -0.81,-0.27 -0.8,-0.3 -0.79,-0.34 -0.77,-0.36 -0.75,-0.39 -0.74,-0.42 -0.72,-0.46 -0.7,-0.48 -0.68,-0.5 -0.67,-0.53 -0.64,-0.56 -0.62,-0.58 -0.6,-0.61 -0.57,-0.63 -0.56,-0.66 -0.52,-0.67 -0.51,-0.7 -0.48,-0.72 -0.45,-0.73 -0.43,-0.75 -0.4,-0.78 -0.37,-0.79 -0.34,-0.81 -0.31,-0.82 -0.28,-0.85 -0.25,-0.85 -0.21,-0.87 -0.19,-0.89 -0.15,-0.89 -0.11,-0.91 -0.09,-0.92 -0.04,-0.93 -0.01,-0.93 0.03,-0.92 0.02,-0.32 -0.01,-0.04 -0.06,-0.46 -0.05,-0.48 -0.03,-0.47 -2.62,-89 -0.01,-0.48 0.02,-0.47 0.01,-0.13 -0.06,-0.67 -0.05,-0.93 v -0.93 l 0.02,-0.92 0.06,-0.92 0.1,-0.9 0.13,-0.9 0.17,-0.88 0.19,-0.87 0.24,-0.85 0.26,-0.85 0.29,-0.83 0.32,-0.81 0.35,-0.8 0.38,-0.78 0.41,-0.76 0.44,-0.75 0.46,-0.73 0.49,-0.71 0.51,-0.68 0.54,-0.67 0.56,-0.64 0.59,-0.62 0.61,-0.6 0.63,-0.57 0.65,-0.55 0.67,-0.52 0.69,-0.5 0.71,-0.47 0.73,-0.44 0.75,-0.41 0.76,-0.38 0.78,-0.36 0.8,-0.32 0.81,-0.29 0.83,-0.26 0.84,-0.22 0.85,-0.19 0.87,-0.16 0.87,-0.12 0.89,-0.08 0.9,-0.05 0.9,-0.01 0.89,0.03 0.88,0.06 0.87,0.1 v 0 z m -889.4,0.2 0.96,0.17 0.95,0.21 0.93,0.24 0.92,0.28 0.9,0.3 0.88,0.34 0.87,0.37 0.85,0.39 0.82,0.43 0.81,0.45 0.79,0.48 0.76,0.51 0.74,0.53 0.72,0.56 0.7,0.59 0.66,0.61 0.65,0.63 0.62,0.65 0.59,0.68 0.56,0.69 0.53,0.72 0.51,0.73 0.47,0.76 0.44,0.77 0.41,0.79 0.38,0.8 0.34,0.83 0.32,0.83 0.27,0.85 0.24,0.87 0.2,0.88 0.16,0.89 0.13,0.89 0.09,0.92 0.05,0.92 0.01,0.93 -0.04,0.92 -0.07,0.93 -0.04,0.31 v 0.03 l 0.06,0.47 0.03,0.48 v 0.47 l -1.22,88.89 -0.02,0.47 -0.05,0.47 -0.01,0.13 0.03,0.67 v 0.93 l -0.03,0.93 -0.07,0.92 -0.12,0.91 -0.14,0.9 -0.2,0.89 -0.22,0.86 -0.26,0.86 -0.3,0.85 -0.33,0.83 -0.37,0.81 -0.4,0.8 -0.43,0.78 -0.47,0.77 -0.49,0.74 -0.53,0.73 -0.55,0.69 -0.58,0.69 -0.61,0.67 -0.64,0.64 -0.66,0.61 -0.68,0.6 -0.71,0.57 -0.74,0.54 -0.75,0.52 -0.78,0.49 -0.8,0.47 -0.82,0.44 -0.84,0.41 -0.85,0.38 -0.88,0.34 -0.89,0.32 -0.91,0.29 -0.93,0.25 -0.93,0.22 -0.96,0.19 -0.97,0.15 -0.97,0.12 -0.99,0.09 -1,0.04 -1.01,0.01 -1.01,-0.03 -1,-0.07 -0.99,-0.1 -0.97,-0.14 -0.96,-0.17 -0.95,-0.21 -0.93,-0.24 -0.92,-0.27 -0.9,-0.32 -0.88,-0.32 -0.86,-0.37 -0.86,-0.4 -0.82,-0.42 -0.81,-0.46 -0.79,-0.48 -0.76,-0.51 -0.74,-0.54 -0.72,-0.55 -0.7,-0.59 -0.66,-0.61 -0.65,-0.62 -0.62,-0.66 -0.59,-0.67 -0.56,-0.7 -0.53,-0.71 -0.51,-0.74 -0.46,-0.76 -0.45,-0.77 -0.41,-0.79 -0.38,-0.8 -0.34,-0.82 -0.31,-0.84 -0.28,-0.85 -0.24,-0.87 -0.2,-0.87 -0.16,-0.89 -0.13,-0.9 -0.08,-0.91 -0.06,-0.92 v -0.94 l 0.03,-0.92 0.05,-0.67 -0.01,-0.13 -0.03,-0.47 v -0.48 l 1.22,-88.88 0.02,-0.48 0.05,-0.47 0.06,-0.47 0.01,-0.04 -0.03,-0.31 -0.05,-0.92 v -0.93 l 0.03,-0.93 0.07,-0.92 0.12,-0.91 0.15,-0.89 0.19,-0.89 0.22,-0.87 0.26,-0.86 0.3,-0.85 0.33,-0.82 0.37,-0.82 0.4,-0.8 0.43,-0.78 0.47,-0.76 0.49,-0.74 0.53,-0.73 0.55,-0.71 0.58,-0.68 0.61,-0.66 0.64,-0.64 0.66,-0.62 0.68,-0.6 0.72,-0.56 0.73,-0.55 0.75,-0.52 0.78,-0.49 0.8,-0.46 0.82,-0.44 0.84,-0.41 0.86,-0.38 0.87,-0.35 0.9,-0.32 0.9,-0.28 0.93,-0.26 0.94,-0.22 0.95,-0.19 0.97,-0.15 0.98,-0.12 0.98,-0.08 1,-0.05 h 1.02 l 1,0.02 1,0.07 0.99,0.1 v 0 z m 137.42,-0.74 0.34,0.07 0.03,0.01 2.58,-0.05 2.94,0.06 2.91,0.17 2.88,0.29 2.85,0.4 2.8,0.51 2.77,0.61 2.73,0.72 2.68,0.82 2.64,0.92 2.58,1.02 2.54,1.11 2.48,1.2 2.43,1.3 2.37,1.39 2.31,1.47 2.25,1.55 2.18,1.64 2.12,1.72 2.05,1.79 1.97,1.87 1.9,1.94 1.83,2.01 1.74,2.08 1.67,2.15 1.58,2.21 1.5,2.27 1.41,2.33 1.32,2.38 1.23,2.44 1.13,2.5 1.03,2.54 0.94,2.59 0.83,2.63 0.74,2.68 0.62,2.72 0.52,2.76 0.4,2.8 0.3,2.83 0.17,2.86 0.06,2.89 -0.06,2.89 -0.17,2.86 -0.3,2.83 -0.4,2.79 -0.52,2.76 -0.62,2.72 -0.74,2.68 -0.83,2.63 -0.94,2.59 -1.03,2.55 -1.13,2.49 -1.23,2.43 -1.32,2.4 -1.41,2.33 -1.5,2.27 -1.58,2.21 -1.67,2.14 -1.74,2.08 -1.83,2.01 -1.9,1.94 -1.97,1.87 -2.05,1.8 -2.12,1.7 -2.18,1.65 -2.03,1.41 -0.46,0.3 -0.01,0.01 -2.44,1.49 -2.5,1.39 -2.57,1.32 -2.63,1.23 -2.68,1.12 -2.73,1.04 -2.79,0.93 -2.84,0.83 -2.88,0.74 -2.79,0.59 -0.94,0.17 -0.34,0.06 -2.8,0.39 -2.88,0.29 -2.91,0.18 -2.94,0.06 -1.69,-0.04 h -0.01 l -0.33,0.09 -0.33,0.1 -0.34,0.07 -0.34,0.06 -0.35,0.04 -0.36,0.02 -0.36,0.01 h -26.11 l -0.36,-0.01 -0.36,-0.02 -0.35,-0.04 -0.05,-0.01 -0.65,0.05 -1.43,0.03 -1.42,-0.03 -1.41,-0.11 -1.38,-0.17 -1.36,-0.24 -1.32,-0.29 -1.3,-0.36 -1.26,-0.41 -1.23,-0.47 -1.19,-0.53 -1.15,-0.58 -1.11,-0.64 -1.06,-0.68 -1.02,-0.72 -0.97,-0.78 -0.91,-0.81 -0.87,-0.86 -0.8,-0.9 -0.75,-0.93 -0.69,-0.97 -0.63,-1.01 -0.56,-1.03 -0.49,-1.07 -0.43,-1.09 -0.35,-1.12 -0.27,-1.14 -0.21,-1.17 -0.12,-1.19 -0.04,-1.2 0.04,-1.2 0.12,-1.19 0.21,-1.16 0.27,-1.14 0.35,-1.12 0.43,-1.1 0.49,-1.06 0.56,-1.04 0.63,-1 0.69,-0.97 0.75,-0.93 0.8,-0.9 0.87,-0.86 0.91,-0.81 0.97,-0.78 1.02,-0.73 1.06,-0.68 1.11,-0.63 1.15,-0.58 1.19,-0.53 1.23,-0.47 1.26,-0.42 1.3,-0.35 1.32,-0.3 1.36,-0.23 1.38,-0.18 1.41,-0.09 1.42,-0.04 1.43,0.04 0.64,0.04 0.06,-0.01 0.35,-0.04 0.36,-0.02 0.36,-0.01 h 26.11 l 0.36,0.01 0.36,0.02 0.35,0.04 0.34,0.06 v -0.01 l 1.05,-0.09 1.31,-0.16 1.31,-0.22 1.28,-0.25 1.26,-0.3 1.25,-0.34 1.22,-0.38 1.2,-0.42 1.18,-0.46 1.15,-0.5 1.12,-0.54 1.1,-0.58 1.08,-0.61 1.04,-0.64 1.01,-0.69 0.98,-0.7 0.95,-0.75 0.92,-0.77 0.88,-0.81 0.84,-0.83 0.81,-0.86 0.78,-0.89 0.73,-0.92 0.7,-0.94 0.65,-0.96 0.61,-0.99 0.57,-1.01 0.52,-1.04 0.49,-1.05 0.43,-1.08 0.39,-1.09 0.34,-1.11 0.28,-1.13 0.25,-1.14 0.19,-1.16 0.13,-1.18 0.08,-1.18 0.03,-1.15 v -0.05 l 0.02,-1.2 -0.03,-1.2 -0.08,-1.19 -0.14,-1.18 -0.18,-1.16 -0.24,-1.15 -0.28,-1.13 -0.34,-1.12 -0.38,-1.09 -0.43,-1.08 -0.47,-1.06 -0.51,-1.03 -0.55,-1.02 -0.6,-0.99 -0.64,-0.97 -0.68,-0.94 -0.72,-0.92 -0.75,-0.89 -0.79,-0.86 -0.82,-0.84 -0.87,-0.8 -0.89,-0.78 -0.92,-0.74 -0.96,-0.72 -0.98,-0.68 -1.02,-0.64 -1.04,-0.61 -1.07,-0.57 -1.1,-0.54 -1.12,-0.5 -1.14,-0.46 -1.17,-0.42 -1.19,-0.38 -1.21,-0.34 -1.23,-0.3 -1.25,-0.25 -1.26,-0.21 -1.28,-0.16 -1.3,-0.11 -0.13,-0.01 v -0.04 l -0.28,0.07 -0.34,0.07 -0.34,0.05 -0.35,0.04 -0.36,0.03 -0.36,0.01 H 365 l -0.36,-0.01 -0.36,-0.03 -0.35,-0.04 -0.05,-0.01 -0.65,0.05 -1.43,0.04 -1.42,-0.04 -1.41,-0.1 -1.38,-0.17 -1.36,-0.24 -1.32,-0.29 -1.3,-0.36 -1.26,-0.42 -1.23,-0.47 -1.19,-0.53 -1.15,-0.58 -1.11,-0.63 -1.06,-0.68 -1.02,-0.73 -0.97,-0.77 -0.91,-0.82 -0.87,-0.86 -0.8,-0.89 -0.75,-0.94 -0.69,-0.97 -0.63,-1 -0.56,-1.04 -0.49,-1.06 -0.43,-1.1 -0.35,-1.11 -0.27,-1.15 -0.21,-1.16 -0.12,-1.19 -0.04,-1.2 0.04,-1.2 0.12,-1.19 0.21,-1.16 0.27,-1.15 0.35,-1.12 0.43,-1.09 0.49,-1.06 0.56,-1.04 0.63,-1 0.69,-0.97 0.75,-0.94 0.8,-0.9 0.87,-0.85 0.91,-0.82 0.97,-0.77 1.02,-0.73 1.06,-0.68 1.11,-0.63 1.15,-0.58 1.19,-0.53 1.23,-0.47 1.26,-0.42 1.3,-0.36 1.32,-0.29 1.36,-0.24 1.38,-0.17 1.41,-0.1 1.42,-0.03 1.43,0.03 0.63,0.05 0.07,-0.01 0.35,-0.04 0.36,-0.03 0.36,-0.01 h 26.11 l 0.36,0.01 0.36,0.03 0.35,0.04 v 0 z m 815.25,96.85 1.37,0.28 1.35,0.34 1.32,0.39 1.28,0.45 1.25,0.5 1.21,0.56 1.17,0.6 1.13,0.65 1.09,0.7 1.04,0.74 1,0.78 0.95,0.82 0.89,0.87 0.84,0.9 0.79,0.93 0.72,0.97 0.67,1 0.61,1.04 0.54,1.06 0.48,1.09 0.41,1.11 0.34,1.14 0.27,1.16 0.19,1.18 0.12,1.2 0.04,1.21 -0.04,1.22 -0.12,1.2 -0.19,1.18 -0.27,1.16 -0.34,1.14 -0.41,1.12 -0.48,1.09 -0.54,1.06 -0.61,1.03 -0.67,1 -0.72,0.97 -0.79,0.94 -0.84,0.9 -0.89,0.86 -0.95,0.82 -1,0.79 -1.04,0.74 -1.09,0.69 -1.13,0.65 -1.17,0.6 -1.21,0.56 -1.25,0.5 -1.28,0.45 -1.32,0.39 -1.35,0.34 -1.37,0.28 -1.4,0.22 -1.43,0.16 -1.45,0.1 -1.47,0.03 -1.47,-0.03 -1.45,-0.1 -1.43,-0.16 -1.4,-0.22 -1.38,-0.28 -1.34,-0.34 -1.32,-0.39 -1.28,-0.45 -1.25,-0.5 -1.21,-0.56 -1.18,-0.6 -1.13,-0.65 -1.09,-0.69 -1.04,-0.74 -1,-0.79 -0.94,-0.82 -0.9,-0.86 -0.84,-0.9 -0.78,-0.94 -0.73,-0.97 -0.67,-1 -0.61,-1.03 -0.54,-1.06 -0.48,-1.09 -0.41,-1.12 -0.34,-1.14 -0.27,-1.16 -0.19,-1.18 -0.12,-1.2 -0.04,-1.22 0.04,-1.21 0.12,-1.2 0.19,-1.18 0.27,-1.16 0.34,-1.14 0.41,-1.11 0.48,-1.09 0.54,-1.06 0.61,-1.04 0.67,-1 0.73,-0.97 0.78,-0.93 0.84,-0.9 0.9,-0.87 0.94,-0.82 1,-0.78 1.04,-0.74 1.09,-0.7 1.13,-0.65 1.18,-0.6 1.21,-0.56 1.25,-0.5 1.28,-0.45 1.32,-0.39 1.34,-0.34 1.38,-0.28 1.4,-0.22 1.43,-0.16 1.45,-0.1 1.47,-0.04 1.47,0.04 1.45,0.1 1.43,0.16 v 0 z m -215.36,-96.43 0.86,0.17 0.85,0.2 0.85,0.24 0.85,0.27 0.84,0.31 0.83,0.34 0.81,0.37 0.82,0.4 0.79,0.44 0.79,0.47 0.77,0.5 0.76,0.52 0.74,0.56 0.73,0.59 0.7,0.62 0.7,0.65 0.67,0.68 0.65,0.7 0.63,0.74 0.61,0.76 0.58,0.79 0.57,0.81 0.53,0.84 0.51,0.87 0.48,0.9 0.45,0.91 0.41,0.91 0.13,0.32 0.03,0.03 0.28,0.44 0.27,0.44 0.24,0.46 44.53,86.25 0.23,0.47 0.21,0.47 0.05,0.13 0.37,0.63 0.49,0.9 0.45,0.91 0.41,0.91 0.38,0.93 0.34,0.93 0.3,0.93 0.27,0.94 0.24,0.94 0.19,0.94 0.17,0.94 0.13,0.93 0.09,0.95 0.06,0.92 0.03,0.93 -0.01,0.93 -0.04,0.92 -0.08,0.91 -0.1,0.91 -0.14,0.89 -0.17,0.89 -0.21,0.87 -0.23,0.86 -0.27,0.84 -0.29,0.84 -0.33,0.81 -0.36,0.81 -0.4,0.78 -0.42,0.77 -0.45,0.74 -0.48,0.73 -0.5,0.7 -0.54,0.68 -0.57,0.65 -0.6,0.64 -0.62,0.6 -0.65,0.59 -0.68,0.55 -0.71,0.52 -0.73,0.5 -0.77,0.46 -0.79,0.43 -0.81,0.4 -0.81,0.35 -0.83,0.31 -0.84,0.28 -0.84,0.24 -0.85,0.19 -0.86,0.16 -0.86,0.12 -0.86,0.08 -0.87,0.05 -0.87,0.01 -0.86,-0.03 -0.87,-0.06 -0.87,-0.11 -0.86,-0.13 -0.87,-0.17 -0.85,-0.2 -0.85,-0.24 -0.85,-0.27 -0.83,-0.31 -0.83,-0.34 -0.82,-0.37 -0.81,-0.41 -0.8,-0.43 -0.79,-0.47 -0.77,-0.5 -0.76,-0.53 -0.74,-0.56 -0.73,-0.59 -0.7,-0.61 -0.7,-0.65 -0.67,-0.68 -0.65,-0.7 -0.63,-0.74 -0.61,-0.76 -0.58,-0.79 -0.56,-0.81 -0.54,-0.85 -0.51,-0.87 -0.48,-0.89 -0.45,-0.91 -0.3,-0.67 -0.08,-0.11 -0.26,-0.45 -0.25,-0.46 -44.53,-86.25 -0.23,-0.47 -0.21,-0.47 -0.19,-0.48 -0.01,-0.04 -0.18,-0.29 -0.52,-0.87 -0.47,-0.89 -0.46,-0.91 -0.41,-0.92 -0.37,-0.92 -0.34,-0.93 -0.31,-0.94 -0.27,-0.93 -0.23,-0.94 -0.2,-0.94 -0.16,-0.94 -0.13,-0.94 -0.1,-0.94 -0.06,-0.93 -0.02,-0.93 v -0.92 l 0.05,-0.92 0.07,-0.92 0.11,-0.9 0.14,-0.9 0.17,-0.88 0.2,-0.87 0.24,-0.86 0.26,-0.85 0.3,-0.83 0.33,-0.82 0.36,-0.8 0.39,-0.78 0.42,-0.77 0.45,-0.74 0.48,-0.73 0.51,-0.7 0.54,-0.68 0.56,-0.66 0.6,-0.63 0.62,-0.61 0.65,-0.58 0.69,-0.56 0.7,-0.52 0.74,-0.49 0.76,-0.46 0.79,-0.43 0.81,-0.4 0.81,-0.35 0.83,-0.31 0.84,-0.28 0.84,-0.24 0.86,-0.19 0.85,-0.16 0.86,-0.12 0.87,-0.09 0.86,-0.04 0.87,-0.01 0.87,0.03 0.86,0.06 0.87,0.1 v 0 z m -833.28,50.26 0.95,0.16 0.96,0.19 0.92,0.22 0.92,0.25 0.89,0.28 0.9,0.31 0.87,0.35 0.84,0.37 0.83,0.4 0.81,0.43 0.8,0.45 0.76,0.49 0.75,0.51 0.73,0.52 0.7,0.56 0.68,0.58 0.64,0.6 0.63,0.62 0.6,0.65 0.57,0.66 0.55,0.69 0.51,0.71 0.48,0.72 0.46,0.74 0.42,0.76 0.39,0.77 0.36,0.79 0.32,0.8 0.28,0.82 0.25,0.83 0.23,0.85 0.18,0.86 0.14,0.87 0.11,0.87 0.06,0.89 0.02,0.9 -0.01,0.9 -0.06,0.89 -0.11,0.88 -0.13,0.87 -0.16,0.86 -0.21,0.85 -0.25,0.83 -0.28,0.82 -0.32,0.81 -0.35,0.79 -0.38,0.78 -0.42,0.76 -0.44,0.74 -0.48,0.72 -0.52,0.71 -0.53,0.69 -0.56,0.67 -0.6,0.65 -0.62,0.63 -0.65,0.6 -0.67,0.58 -0.69,0.57 -0.72,0.53 -0.74,0.51 -0.78,0.49 -0.78,0.46 -0.8,0.44 -0.83,0.4 -0.85,0.38 -0.87,0.35 -0.87,0.32 -0.9,0.29 -0.92,0.26 -0.94,0.22 -0.93,0.2 -0.96,0.16 -0.98,0.12 -0.97,0.09 -0.99,0.06 -1.01,0.03 -1,-0.02 -0.73,-0.04 -0.13,0.02 -0.52,0.03 -0.51,0.01 -95.97,0.33 -0.53,-0.01 -0.5,-0.03 -0.51,-0.05 -0.03,-0.01 -0.34,0.03 -1,0.06 -1,0.02 -1,-0.01 -0.99,-0.05 -0.99,-0.09 -0.98,-0.12 -0.95,-0.16 -0.94,-0.18 -0.95,-0.22 -0.91,-0.25 -0.89,-0.29 -0.89,-0.31 -0.88,-0.34 -0.84,-0.38 -0.82,-0.4 -0.81,-0.42 -0.81,-0.46 -0.75,-0.48 -0.75,-0.51 -0.73,-0.53 -0.71,-0.56 -0.66,-0.57 -0.66,-0.61 -0.62,-0.62 -0.6,-0.64 -0.58,-0.67 -0.53,-0.68 -0.53,-0.71 -0.47,-0.72 -0.45,-0.74 -0.43,-0.76 -0.4,-0.77 -0.35,-0.79 -0.32,-0.81 -0.3,-0.81 -0.25,-0.84 -0.2,-0.84 -0.19,-0.86 -0.14,-0.87 -0.1,-0.88 -0.06,-0.89 -0.03,-0.9 0.02,-0.89 0.04,-0.89 0.11,-0.88 0.13,-0.87 0.17,-0.86 0.22,-0.85 0.24,-0.83 0.29,-0.82 0.31,-0.81 0.34,-0.79 0.4,-0.78 0.41,-0.76 0.44,-0.74 0.47,-0.73 0.52,-0.71 0.54,-0.68 0.41,-0.49 0.16,-0.18 0.59,-0.65 0.47,-0.48 0.15,-0.15 0.63,-0.61 0.69,-0.58 0.69,-0.56 0.72,-0.54 0.64,-0.44 0.11,-0.07 0.69,-0.44 0.06,-0.04 0.76,-0.45 0.04,-0.02 0.81,-0.43 0.82,-0.4 0.85,-0.38 0.86,-0.35 0.89,-0.32 0.89,-0.29 0.92,-0.26 0.93,-0.23 0.94,-0.19 0.96,-0.16 0.97,-0.13 0.98,-0.09 1,-0.06 1,-0.02 1,0.02 1,0.05 0.34,0.03 0.03,-0.01 0.51,-0.05 0.5,-0.04 0.53,-0.01 95.97,-0.33 0.51,0.01 0.51,0.03 0.14,0.02 0.72,-0.04 1.01,-0.03 1,0.02 1,0.05 0.97,0.08 v 0 z m 679.92,-1.85 0.96,0.16 0.94,0.18 0.93,0.21 0.92,0.26 0.9,0.27 0.88,0.3 0.87,0.35 0.85,0.36 0.83,0.4 0.81,0.42 0.79,0.44 0.77,0.47 0.75,0.5 0.72,0.52 0.71,0.55 0.67,0.57 0.65,0.59 0.63,0.61 0.6,0.63 0.57,0.66 0.38,0.47 0.16,0.21 0.51,0.69 0.49,0.72 0.3,0.47 0.15,0.24 0.42,0.75 0.39,0.76 0.36,0.77 0.32,0.8 0.29,0.8 0.26,0.82 0.21,0.84 0.18,0.83 0.15,0.86 0.1,0.86 0.06,0.88 0.03,0.88 -0.02,0.89 -0.06,0.87 -0.09,0.86 -0.14,0.86 -0.17,0.85 -0.21,0.82 -0.24,0.83 -0.29,0.8 -0.31,0.79 -0.36,0.78 -0.38,0.76 -0.41,0.75 -0.45,0.73 -0.48,0.71 -0.51,0.7 -0.53,0.68 -0.57,0.66 -0.59,0.63 -0.62,0.62 -0.5,0.46 -0.15,0.14 -0.67,0.57 -0.56,0.45 -0.14,0.11 -0.72,0.52 -0.74,0.5 -0.76,0.48 -0.79,0.45 -0.81,0.42 -0.83,0.41 -0.84,0.37 -0.86,0.34 -0.89,0.32 -0.9,0.27 -0.91,0.26 -0.93,0.23 -0.94,0.18 -0.96,0.17 -0.97,0.12 -0.99,0.09 -0.99,0.06 -1,0.01 h -1 l -0.73,-0.04 -0.13,0.02 -0.52,0.02 -0.52,0.01 -95.97,0.33 -0.51,-0.01 -0.51,-0.03 -0.51,-0.05 -0.04,-0.01 -0.33,0.03 -1,0.06 -1,0.02 -1.01,-0.01 -0.99,-0.06 -0.98,-0.08 -0.97,-0.12 -0.96,-0.15 -0.95,-0.19 -0.93,-0.22 -0.92,-0.24 -0.9,-0.28 -0.88,-0.3 -0.87,-0.35 -0.85,-0.36 -0.83,-0.39 -0.81,-0.43 -0.79,-0.44 -0.77,-0.48 -0.75,-0.49 -0.72,-0.52 -0.7,-0.55 -0.68,-0.57 -0.65,-0.59 -0.63,-0.61 -0.6,-0.64 -0.56,-0.65 -0.55,-0.68 -0.52,-0.68 -0.48,-0.71 -0.45,-0.74 -0.42,-0.74 -0.39,-0.75 -0.36,-0.79 -0.32,-0.79 -0.29,-0.8 -0.25,-0.82 -0.22,-0.82 -0.18,-0.85 -0.14,-0.85 -0.11,-0.87 -0.06,-0.87 -0.02,-0.89 0.01,-0.88 0.06,-0.88 0.1,-0.85 0.13,-0.86 0.17,-0.84 0.21,-0.84 0.25,-0.81 0.28,-0.81 0.2,-0.5 0.11,-0.3 0.36,-0.77 0.38,-0.77 0.41,-0.75 0.45,-0.73 0.48,-0.71 0.51,-0.7 0.54,-0.68 0.56,-0.66 0.44,-0.47 0.15,-0.16 0.62,-0.62 0.65,-0.59 0.56,-0.46 0.12,-0.11 0.69,-0.55 0.62,-0.46 0.1,-0.07 0.74,-0.51 0.77,-0.48 0.79,-0.45 0.8,-0.42 0.83,-0.4 0.85,-0.38 0.86,-0.33 0.88,-0.32 0.9,-0.28 0.91,-0.26 0.93,-0.22 0.95,-0.19 0.96,-0.16 0.96,-0.13 0.99,-0.08 0.99,-0.06 1,-0.02 1.01,0.01 0.99,0.06 0.34,0.02 h 0.04 l 0.5,-0.06 0.52,-0.03 0.51,-0.02 95.97,-0.32 0.52,0.01 0.51,0.03 0.14,0.01 0.72,-0.04 1.01,-0.02 1,0.02 0.99,0.05 0.99,0.08 v 0 z m -679.92,-48.47 0.95,0.16 0.96,0.18 0.92,0.22 0.92,0.26 0.89,0.28 0.9,0.31 0.87,0.35 0.84,0.37 0.83,0.4 0.81,0.43 0.8,0.45 0.76,0.48 0.75,0.51 0.73,0.53 0.7,0.56 0.68,0.57 0.64,0.6 0.63,0.63 0.6,0.64 0.57,0.67 0.55,0.68 0.51,0.71 0.48,0.72 0.46,0.74 0.42,0.76 0.39,0.77 0.36,0.79 0.32,0.8 0.28,0.83 0.25,0.83 0.23,0.85 0.18,0.85 0.14,0.87 0.11,0.88 0.06,0.89 0.02,0.9 -0.01,0.9 -0.06,0.89 -0.11,0.88 -0.13,0.87 -0.16,0.86 -0.21,0.84 -0.25,0.84 -0.28,0.82 -0.32,0.8 -0.35,0.79 -0.38,0.78 -0.42,0.76 -0.44,0.74 -0.48,0.73 -0.52,0.71 -0.53,0.69 -0.56,0.67 -0.6,0.64 -0.62,0.63 -0.65,0.61 -0.67,0.58 -0.69,0.56 -0.72,0.54 -0.74,0.51 -0.78,0.49 -0.78,0.45 -0.8,0.44 -0.83,0.41 -0.85,0.37 -0.87,0.35 -0.87,0.32 -0.9,0.29 -0.92,0.26 -0.94,0.22 -0.93,0.2 -0.96,0.16 -0.98,0.13 -0.97,0.09 -0.99,0.06 -1.01,0.02 -1,-0.02 -0.73,-0.03 -0.65,0.05 -0.51,0.01 -95.97,0.33 -0.53,-0.01 -0.5,-0.04 -0.51,-0.05 h -0.03 l -0.34,0.03 -1,0.06 -1,0.02 -1,-0.02 -0.99,-0.05 -0.99,-0.08 -0.98,-0.13 -0.95,-0.15 -0.94,-0.19 -0.95,-0.22 -0.91,-0.25 -0.89,-0.28 -0.89,-0.32 -0.88,-0.34 -0.84,-0.37 -0.82,-0.4 -0.81,-0.43 -0.81,-0.46 -0.75,-0.48 -0.75,-0.5 -0.73,-0.54 -0.71,-0.55 -0.66,-0.58 -0.66,-0.6 -0.62,-0.62 -0.6,-0.65 -0.58,-0.66 -0.53,-0.69 -0.53,-0.7 -0.47,-0.72 -0.45,-0.75 -0.43,-0.75 -0.4,-0.78 -0.35,-0.79 -0.32,-0.8 -0.3,-0.82 -0.25,-0.83 -0.2,-0.85 -0.19,-0.86 -0.14,-0.86 -0.1,-0.88 -0.06,-0.89 -0.03,-0.9 0.02,-0.9 0.04,-0.89 0.11,-0.88 0.13,-0.87 0.17,-0.86 0.22,-0.85 0.24,-0.83 0.29,-0.82 0.31,-0.81 0.34,-0.79 0.4,-0.77 0.41,-0.76 0.44,-0.75 0.47,-0.72 0.52,-0.71 0.54,-0.69 0.57,-0.67 0.59,-0.65 0.62,-0.63 0.63,-0.6 0.69,-0.59 0.69,-0.55 0.72,-0.54 0.75,-0.51 0.75,-0.49 0.8,-0.46 0.81,-0.43 0.82,-0.41 0.85,-0.38 0.86,-0.34 0.89,-0.32 0.89,-0.29 0.92,-0.26 0.93,-0.23 0.94,-0.19 0.96,-0.16 0.97,-0.13 0.98,-0.09 1,-0.06 1,-0.02 1,0.01 1,0.05 0.34,0.03 0.03,-0.01 0.51,-0.05 0.5,-0.04 0.53,-0.01 95.97,-0.32 0.51,0.01 0.51,0.03 0.14,0.01 0.72,-0.04 1.01,-0.02 1,0.02 1,0.04 0.97,0.09 v 0 z m 679.92,0 0.96,0.14 0.94,0.19 0.93,0.22 0.92,0.24 0.9,0.29 0.88,0.3 0.87,0.35 0.85,0.35 0.83,0.39 0.81,0.42 0.79,0.46 0.77,0.47 0.75,0.5 0.72,0.52 0.71,0.54 0.67,0.57 0.65,0.59 0.63,0.62 0.6,0.63 0.57,0.65 0.54,0.68 0.51,0.69 0.49,0.71 0.45,0.73 0.42,0.75 0.39,0.75 0.36,0.78 0.32,0.79 0.29,0.8 0.26,0.82 0.21,0.83 0.18,0.85 0.15,0.85 0.1,0.87 0.06,0.86 0.03,0.9 -0.02,0.88 -0.06,0.87 -0.09,0.86 -0.14,0.86 -0.17,0.84 -0.21,0.84 -0.24,0.81 -0.29,0.81 -0.31,0.79 -0.36,0.78 -0.38,0.77 -0.41,0.74 -0.45,0.73 -0.48,0.71 -0.51,0.71 -0.53,0.68 -0.57,0.64 -0.59,0.64 -0.62,0.62 -0.65,0.59 -0.67,0.58 -0.7,0.55 -0.72,0.52 -0.74,0.51 -0.76,0.48 -0.79,0.45 -0.81,0.43 -0.83,0.4 -0.84,0.37 -0.86,0.34 -0.89,0.32 -0.9,0.28 -0.91,0.26 -0.93,0.21 -0.94,0.2 -0.96,0.16 -0.97,0.12 -0.99,0.09 -0.99,0.06 -1,0.02 -1,-0.02 -0.73,-0.04 -0.13,0.02 -0.52,0.03 -0.52,0.02 -95.97,0.32 -0.51,-0.01 -0.51,-0.03 -0.51,-0.05 h -0.04 l -0.33,0.03 -1,0.06 -1,0.01 -1.01,-0.01 -0.99,-0.05 -0.98,-0.09 -0.97,-0.12 -0.96,-0.15 -0.95,-0.18 -0.93,-0.22 -0.92,-0.25 -0.9,-0.28 -0.88,-0.31 -0.87,-0.33 -0.85,-0.37 -0.83,-0.39 -0.81,-0.42 -0.79,-0.45 -0.77,-0.47 -0.75,-0.49 -0.72,-0.54 -0.7,-0.54 -0.68,-0.57 -0.65,-0.59 -0.63,-0.61 -0.6,-0.63 -0.56,-0.66 -0.55,-0.67 -0.52,-0.69 -0.48,-0.72 -0.45,-0.72 -0.42,-0.74 -0.39,-0.77 -0.36,-0.77 -0.32,-0.79 -0.29,-0.81 -0.25,-0.81 -0.22,-0.84 -0.18,-0.84 -0.14,-0.85 -0.11,-0.87 -0.06,-0.87 -0.02,-0.88 0.01,-0.89 0.06,-0.87 0.1,-0.87 0.13,-0.85 0.17,-0.85 0.21,-0.83 0.25,-0.82 0.28,-0.8 0.31,-0.8 0.36,-0.78 0.38,-0.75 0.41,-0.76 0.45,-0.73 0.48,-0.71 0.51,-0.7 0.54,-0.67 0.56,-0.66 0.59,-0.64 0.62,-0.62 0.65,-0.59 0.68,-0.58 0.69,-0.55 0.72,-0.53 0.74,-0.49 0.77,-0.48 0.79,-0.45 0.8,-0.43 0.83,-0.4 0.85,-0.37 0.86,-0.35 0.88,-0.31 0.9,-0.29 0.91,-0.24 0.93,-0.23 0.95,-0.18 0.96,-0.17 0.96,-0.13 0.99,-0.09 0.99,-0.06 1,-0.01 1.01,0.01 0.99,0.05 0.34,0.03 0.04,-0.01 0.5,-0.05 0.52,-0.04 0.51,-0.01 95.97,-0.31 0.52,0.01 0.51,0.03 0.14,0.01 0.72,-0.04 1.01,-0.02 1,0.01 0.99,0.05 0.99,0.09 v 0 z"
       id="fawcxCEFZ"
       inkscape:connector-curvature="0" />
    <linearGradient
       id="gradientf3JoDWMyAw"
       gradientUnits="userSpaceOnUse"
       x1="1413.62"
       y1="552.81"
       x2="328.97"
       y2="140.63">
      <stop
         style="stop-color: #b7ea5b;stop-opacity: 1"
         offset="0%"
         id="stop3" />
      <stop
         style="stop-color: #388e3c;stop-opacity: 1"
         offset="100%"
         id="stop5" />
    </linearGradient>
    <filter
       style="color-interpolation-filters:sRGB"
       inkscape:label="Drop Shadow"
       id="filter4802">
      <feFlood
         flood-opacity="0.498039"
         flood-color="rgb(0,0,0)"
         result="flood"
         id="feFlood4792" />
      <feComposite
         in="flood"
         in2="SourceGraphic"
         operator="in"
         result="composite1"
         id="feComposite4794" />
      <feGaussianBlur
         in="composite1"
         stdDeviation="10"
         result="blur"
         id="feGaussianBlur4796" />
      <feOffset
         dx="5"
         dy="5"
         result="offset"
         id="feOffset4798" />
      <feComposite
         in="SourceGraphic"
         in2="offset"
         operator="over"
         result="composite2"
         id="feComposite4800" />
    </filter>
  </defs>
  <g
     id="g18"
     transform="translate(12.442588,-253.32097)">
    <g
       id="g16">
      <g
         id="g14">
        <use
           height="100%"
           width="100%"
           y="0"
           x="0"
           style="opacity:1;fill-opacity:0;stroke:#000000;stroke-width:1;stroke-opacity:0"
           id="use12"
           xlink:href="#fawcxCEFZ" />
      </g>
      <rect
         style="opacity:1;fill:#00000f;fill-opacity:0.94117647;stroke:none;stroke-width:0;stroke-miterlimit:4;stroke-dasharray:none;stroke-dashoffset:0;stroke-opacity:1;paint-order:fill markers stroke"
         id="rect4541"
         width="500"
         height="760.13428"
         x="2.629812"
         y="118.43221"
         rx="43.384373"
         ry="100"
         transform="matrix(1.0602896,0,0,0.46044497,-15.23095,198.78945)"
         inkscape:export-xdpi="90.541306"
         inkscape:export-ydpi="90.541306" />
      <use
         height="100%"
         width="100%"
         y="0"
         x="0"
         style="opacity:1;fill:url(#gradientf3JoDWMyAw)"
         id="use10"
         xlink:href="#fawcxCEFZ"
         transform="matrix(0.39395013,0,0,0.46294159,5.0380526,317.32609)" />
    </g>
  </g>
</svg>
