<?xml version="1.0" encoding="UTF-8" standalone="no"?>
<svg
   xmlns:dc="http://purl.org/dc/elements/1.1/"
   xmlns:cc="http://creativecommons.org/ns#"
   xmlns:rdf="http://www.w3.org/1999/02/22-rdf-syntax-ns#"
   xmlns:svg="http://www.w3.org/2000/svg"
   xmlns="http://www.w3.org/2000/svg"
   xmlns:sodipodi="http://sodipodi.sourceforge.net/DTD/sodipodi-0.dtd"
   xmlns:inkscape="http://www.inkscape.org/namespaces/inkscape"
   id="svg87"
   xml:space="preserve"
   viewBox="0 0 500 500"
   version="1.1"
   style="enable-background:new 0 0 500 500;"
   sodipodi:docname="ic_sales.svg"
   inkscape:version="0.92.2 (5c3e80d, 2017-08-06)"><sodipodi:namedview
     pagecolor="#ffffff"
     bordercolor="#666666"
     borderopacity="1"
     objecttolerance="10"
     gridtolerance="10"
     guidetolerance="10"
     inkscape:pageopacity="0"
     inkscape:pageshadow="2"
     inkscape:window-width="2560"
     inkscape:window-height="1017"
     id="namedview862"
     showgrid="false"
     inkscape:zoom="1.7"
     inkscape:cx="250"
     inkscape:cy="226.47059"
     inkscape:window-x="-8"
     inkscape:window-y="-8"
     inkscape:window-maximized="1"
     inkscape:current-layer="g83" /><metadata
     id="metadata93"><rdf:RDF><cc:Work
         rdf:about=""><dc:format>image/svg+xml</dc:format><dc:type
           rdf:resource="http://purl.org/dc/dcmitype/StillImage" /><dc:title /></cc:Work></rdf:RDF></metadata><defs
     id="defs91" /><g
     id="percentage-sign"><g
       id="g83"><g
         id="_x33_3_1_"><g
           id="g72" /><g
           transform="matrix(0.82246505,0,0,0.82246505,46.521703,49.485266)"
           id="g80"><g
             id="g4828"><path
               id="polygon74"
               transform="matrix(1.2158571,0,0,1.2158571,-56.563745,-60.167014)"
               style="fill:#454545;fill-opacity:1;stroke-width:0.82246506"
               d="m 255.15625,98.958984 -2.73242,5.105466 c -1.91301,0.102 -3.8276,0.478 -5.72461,0.875 1.416,1.333 2.77923,2.50303 4.11523,3.95703 l -0.95703,5.70704 4.86524,-2.47071 4.66015,2.95899 -0.55469,-5.77735 4.375,-3.85547 -5.64453,-1.14843 z m -27.43359,1.605466 -1.7793,5.56641 c -1.841,0.6 -3.68737,1.07753 -5.48438,1.76953 1.61201,0.977 3.22634,2.20741 4.77735,3.31641 l 0.10351,5.78711 4.3125,-3.41797 5.10938,1.96289 -1.58203,-5.56445 c 1.168,-1.546 2.3601,-3.1724 3.62109,-4.5254 -1.936,-0.285 -3.82844,-0.0606 -5.77344,-0.10156 z m 54.72851,1.83203 -3.60156,4.48633 -5.81836,-0.0703 3.32617,4.64844 -1.95898,5.5039 c 1.745,-0.692 3.48937,-1.29198 5.23437,-1.70898 l 4.03907,3.85547 0.50781,-5.78906 4.97851,-2.89844 -5.34375,-2.2793 z m -81.42969,4.83204 -0.71875,5.81836 -5.08984,2.79687 5.31445,2.34961 1.16016,5.6875 3.5957,-4.21094 5.36133,0.91602 -2.56836,-5.17969 2.76563,-4.98242 c -1.91001,0.203 -3.85071,0.36575 -5.72071,0.84375 z m 107.65821,3.67187 -4.41992,3.85547 -5.67579,-1.20898 2.41016,5.20703 -2.93945,5.04687 5.5039,-0.79492 3.2461,4.58789 1.55469,-5.60547 5.40234,-1.87109 -4.80664,-3.27539 z m -132.70703,7.875 0.36914,5.87891 -4.44922,3.73437 5.62109,1.29102 2.18164,5.38086 2.74219,-4.86133 c 1.82901,-0.061 3.59461,-0.163 5.47461,0 l -3.49219,-4.66992 1.82031,-5.41211 c -1.81599,0.621 -3.71495,1.11856 -5.50195,1.85156 z m 156.89257,5.44141 -5.07031,3.00195 -5.30664,-2.31055 1.38477,5.625 -3.79493,4.39453 5.56446,0.23438 2.33984,5.10742 2.58399,-5.23047 5.625,-0.80273 -4.10352,-4.16016 z m -169.04492,10.01953 -5.0957,2.81836 -5.26953,-2.26953 1.43945,5.74804 -3.68359,4.52735 5.75,0.21289 3.11718,4.87304 1.78516,-5.30859 c 1.74201,-0.468 3.58941,-0.75428 5.44141,-0.98828 l -4.28711,-3.91602 z m 180.07617,6.29687 0.34961,5.81836 -4.52539,3.61133 5.41211,1.3125 c 0.62,1.68901 0.98083,3.60211 1.42383,5.41211 l 3.45898,-4.69141 5.67579,0.27539 -3.25,-4.87109 1.75586,-5.55469 -5.50391,1.98242 z m -199.58007,11.73828 -4.4668,3.75391 -5.63867,-1.29101 2.45312,5.38085 -2.77344,5.13672 5.66993,-0.875 3.95507,4.23047 0.7754,-5.58398 c 1.62299,-0.773 3.48812,-1.29306 5.20312,-1.91406 l -4.90625,-3.08008 z m 217.83593,7.63086 -0.73828,5.78907 -5.07031,2.69531 5.02539,2.30859 c 0.27901,1.81 0.46804,3.65097 0.49805,5.54297 l 4.25195,-3.93555 5.48242,1.33204 -2.28906,-5.42188 2.68555,-5.10547 -5.7461,0.92578 z m -233.74414,13.73243 -3.69336,4.52734 -5.86328,-0.27539 3.41992,4.85156 -1.74218,5.60547 5.37109,-1.93164 4.66602,3.41797 -0.29883,-5.64649 4.83789,-2.83789 -5.375,-2.08593 z m 248.20703,8.66796 -1.80468,5.5625 -5.47852,1.70899 4.51367,3.23633 c -0.16799,1.872 -0.13789,3.63043 -0.46289,5.52343 l 4.90235,-3.10351 5.11718,2.34961 c -0.447,-1.892 -0.67103,-3.89556 -1.33203,-5.72656 l 3.58008,-4.52735 -5.80859,-0.16211 z m -100.0039,10.82032 -65.35742,119.57226 H 229.125 l 65.37305,-119.57226 z m -59.48242,0.01 c -7.50942,0 -15.01814,2.90413 -20.74414,8.71485 -11.47504,11.6206 -11.47504,30.47232 0,42.09375 11.452,11.62965 30.03175,11.62965 41.49609,0 11.45612,-11.62061 11.45612,-30.47232 0,-42.09375 -5.73217,-5.81072 -13.24254,-8.71485 -20.75195,-8.71485 z m -100.53125,4.44922 -2.74024,5.16602 -5.7832,0.83398 4.1289,4.08985 -0.63671,5.85937 4.88086,-2.91992 5.23046,2.49414 c -0.433,-1.78 -1.03204,-3.68266 -1.24804,-5.47266 l 4.19531,-3.69336 -5.66211,-1.05664 z m 100.52929,5.85742 c 4.90775,0 9.81587,1.90241 13.56055,5.70508 7.49019,7.59711 7.49019,19.91153 0,27.50781 -7.48937,7.59711 -19.6379,7.59711 -27.11328,0 -7.49266,-7.59628 -7.49266,-19.9107 0,-27.50781 3.73769,-3.80267 8.64498,-5.70508 13.55273,-5.70508 z m 169.67383,3.5918 -2.83789,5.14844 -5.6875,0.63867 3.77344,4.03906 -1.4043,5.32031 5.31055,-2.10546 c 1.698,1.01799 3.18493,2.1249 4.71094,3.2539 0.04,-1.96299 -0.12125,-3.92589 -0.36524,-5.83789 l 4.37305,-3.79492 -5.65625,-1.25 z m -277.45117,16.29492 -1.67578,5.60547 -5.50586,1.93359 4.72265,3.21485 c -0.008,1.953 0.31113,3.93613 0.45313,5.86914 l 4.19531,-3.7832 5.59766,1.4746 c -0.885,-1.709 -1.40913,-3.39795 -2.07813,-5.12695 l 3.37305,-4.43555 -5.73047,0.0195 z m 282.80078,9.93945 c -1.067,1.546 -2.29979,3.04135 -3.5918,4.52735 l -5.69531,-0.4375 2.89844,4.68945 -2.41602,4.97461 5.61133,-1.08789 4.21094,4.06836 0.55859,-5.80859 5,-2.89844 -5.27344,-2.31055 c -0.38699,-1.923 -0.65073,-3.8358 -1.30273,-5.7168 z M 106.83984,250 l -0.54101,5.81836 -5.02539,2.91992 5.28125,2.28906 c 0.401,1.922 0.65578,3.8348 1.30078,5.7168 1.068,-1.547 2.30237,-3.04235 3.60937,-4.52734 l 5.68164,0.4375 -2.89843,-4.6875 2.42383,-4.98438 -5.61524,1.08789 z m 181.38477,3.83398 c -7.51168,0 -15.01948,2.90783 -20.74219,8.72266 -11.46269,11.62143 -11.46269,30.4716 0,42.08398 11.44543,11.62144 30.03597,11.62144 41.50196,0 11.44131,-11.61238 11.44131,-30.46255 0,-42.08398 -5.733,-5.81483 -13.24809,-8.72266 -20.75977,-8.72266 z m 104.45117,6.2168 -4.20117,3.79492 -5.58984,-1.48632 c 0.88499,1.709 1.40222,3.39695 2.07421,5.12695 l -3.37695,4.45703 5.72656,-0.0508 3.35743,4.7793 1.66796,-5.60352 5.50977,-1.91211 -4.73633,-3.24609 c 0.019,-1.944 -0.28464,-3.92738 -0.43164,-5.85938 z m -104.44336,4.0957 c 4.90806,0 9.81628,1.89913 13.56055,5.69727 7.4795,7.60533 7.4795,19.91153 0,27.50781 -7.48772,7.59629 -19.63492,7.59629 -27.11524,0 -7.48772,-7.59628 -7.48772,-19.90248 0,-27.50781 3.74016,-3.79814 8.64663,-5.69727 13.55469,-5.69727 z m -178.88281,12.5254 c -0.043,1.98399 0.12105,3.91542 0.37305,5.85742 l -4.3711,3.76562 5.63672,1.27149 2.23438,5.40234 2.83593,-5.14844 5.67774,-0.65039 -3.76563,-4.01758 1.39258,-5.34179 -5.30859,2.10547 c -1.691,-0.996 -3.17408,-2.10415 -4.70508,-3.24414 z m 279.08398,9.79687 -4.86718,2.93945 -5.21875,-2.50195 c 0.41699,1.79 1.01638,3.66165 1.23437,5.47266 l -4.19531,3.6914 5.66211,1.06836 2.35351,5.29102 2.7461,-5.16797 5.79883,-0.85547 -4.14063,-4.08008 z m -261.79492,15.20898 -4.91406,3.11133 -5.12695,-2.35937 c 0.463,1.90099 0.69084,3.89479 1.33984,5.71679 l -3.57812,4.51758 5.81054,0.19336 3.22461,4.85156 1.80469,-5.58398 5.48828,-1.68945 -4.50977,-3.22461 c 0.165,-1.88201 0.12294,-3.65121 0.46094,-5.53321 z m 242.81641,8.49415 0.29101,5.64453 -4.84179,2.82812 5.38476,2.10547 1.3125,5.625 3.69336,-4.53711 5.85938,0.26563 -3.40821,-4.83204 1.75,-5.60546 -5.38086,1.9414 z m -231.31055,13.58007 -4.25391,3.9668 -5.48437,-1.34375 2.28711,5.42188 -2.68945,5.08789 5.76171,-0.91602 4.0918,4.14844 0.74414,-5.79688 5.08594,-2.71679 -5.04492,-2.28907 c -0.28101,-1.81 -0.46405,-3.6605 -0.49805,-5.5625 z m 218.3418,7.62891 -0.76367,5.58398 c -1.617,0.794 -3.49927,1.31236 -5.19727,1.94336 l 4.89258,3.06055 0.27344,5.74805 4.4707,-3.72461 5.64258,1.29297 -2.46289,-5.40039 2.77734,-5.14844 -5.66211,0.875 z m -203.03125,11.94141 -3.46289,4.66992 -5.67383,-0.27539 3.25976,4.88281 -1.76953,5.56445 5.51172,-2.0039 4.79297,3.29492 -0.34766,-5.81641 4.52344,-3.60156 -5.39453,-1.29297 c -0.638,-1.709 -1.01045,-3.60988 -1.43945,-5.42187 z m 186.48047,6.53125 -1.79102,5.33007 c -1.749,0.458 -3.59055,0.73157 -5.43555,0.97657 l 4.28711,3.92773 -0.80468,5.68555 5.09765,-2.81836 5.26953,2.25976 -1.43554,-5.73828 3.67383,-4.51562 -5.74415,-0.21485 z m -167.91602,9.87695 -2.56055,5.23047 -5.63867,0.8125 4.09961,4.14062 -0.76953,5.85938 5.0625,-2.97071 5.32227,2.28907 -1.39844,-5.60547 3.79297,-4.4043 -5.5586,-0.24414 z m 148.30274,5.20898 -2.7461,4.85352 c -1.83099,0.061 -3.59066,0.19228 -5.47265,0.0293 l 3.49804,4.66796 -1.83984,5.39258 c 1.831,-0.601 3.73158,-1.10708 5.51758,-1.83008 l 4.75586,3.1836 -0.3711,-5.90039 4.4668,-3.72461 -5.63672,-1.30078 z m -127.09766,7.45703 -1.56445,5.63477 -5.41993,1.85156 4.81836,3.29688 0.28125,5.93945 4.41993,-3.85547 5.67382,1.20117 -2.4082,-5.23046 2.92773,-5.02344 -5.49414,0.77148 z m 105.09375,3.71094 -3.58984,4.23242 -5.35547,-0.93554 2.57226,5.20898 -2.78711,4.98438 c 1.917,-0.214 3.86043,-0.37747 5.73242,-0.85547 L 299,392.7793 l 0.72266,-5.82813 5.07617,-2.79687 -5.32031,-2.35938 z m -81.98047,4.77344 -0.5,5.81836 -4.99805,2.90039 5.35352,2.24805 1.36328,5.77734 3.62305,-4.48633 5.80273,0.041 -3.32617,-4.61914 1.95898,-5.51367 c -1.731,0.691 -3.48414,1.27145 -5.24414,1.68945 z m 58.33594,2.125 -4.31836,3.39648 -5.10156,-1.93164 1.58203,5.53321 c -1.17,1.576 -2.36582,3.17364 -3.63282,4.55664 1.95301,0.265 3.8463,0.0405 5.7793,0.10156 l 3.31055,4.77148 1.76562,-5.56445 c 1.85201,-0.61001 3.69719,-1.06653 5.49219,-1.76953 -1.597,-0.977 -3.21362,-2.20787 -4.76562,-3.29688 z m -34.05078,1.92383 0.55664,5.76758 -4.37891,3.86523 5.66406,1.11914 2.38282,5.36133 2.75586,-5.08789 c 1.89699,-0.111 3.80788,-0.49754 5.71289,-0.89453 -1.424,-1.32201 -2.78929,-2.48345 -4.11329,-3.93946 l 0.94336,-5.71484 -4.85351,2.48242 z m 259.37697,-134.92968 -26.78401,29.409 18.32,35.309 -33.487,21.454 8.483,38.858 -37.913,12.025 -1.841,39.723 -39.734,1.841 -12.024,37.924 -38.859,-8.494 -21.454,33.498 -35.298,-18.321 -29.409,26.774 -29.419,-26.774 -35.299,18.321 -21.464,-33.498 -38.85901,8.494 -12.014,-37.924 -39.722997,-1.841 -1.851001,-39.734 -37.913001,-12.023 8.483001,-38.849 -33.4880014,-21.454 18.3210004,-35.309 L 3.5961225e-7,250.00001 26.774001,220.59101 8.4530006,185.28201 41.941002,163.82901 33.458001,124.97 l 37.913001,-12.014 1.851001,-39.733998 39.733997,-1.841 12.014,-37.913001 38.85901,8.484 21.453,-33.4890006 35.299,18.3210006 L 250.00001,1.778607e-7 279.40901,26.784001 l 35.309,-18.3210006 21.454,33.4990006 38.858,-8.494 12.014,37.913001 39.734,1.851 1.841,39.733998 37.913,12.014 -8.483,38.85901 33.487,21.443 -18.32,35.309 z" /></g></g></g></g></g><g
     id="Layer_1" /></svg>