<?xml version="1.0" ?><svg id="Layer_1" style="enable-background:new 0 0 74 74;" version="1.1" viewBox="0 0 74 74" xml:space="preserve" xmlns="http://www.w3.org/2000/svg" xmlns:xlink="http://www.w3.org/1999/xlink"><style type="text/css">
	.st0{fill:#2B3033;}
</style><g><path class="st0" d="M52.9,1H21.1c-4.8,0-8.6,3.9-8.6,8.6v54.7c0,4.8,3.9,8.6,8.6,8.6h31.9c4.8,0,8.6-3.9,8.6-8.6V9.6   C61.6,4.9,57.7,1,52.9,1z M21.1,5h31.9c2.6,0,4.6,2.1,4.6,4.6v1.5H16.4V9.6C16.4,7.1,18.5,5,21.1,5z M52.9,69H21.1   c-2.6,0-4.6-2.1-4.6-4.6v-8.1h34.9c1.1,0,2-0.9,2-2s-0.9-2-2-2H16.4V15.1h41.2v49.3C57.6,66.9,55.5,69,52.9,69z"/><path class="st0" d="M43.2,23.8H39v-2.2c0-1.1-0.9-2-2-2s-2,0.9-2,2v2.4c-2.5,0.7-4.3,3-4.3,5.7c0,3.3,2.7,5.9,5.9,5.9h0.7   c1.1,0,1.9,0.9,1.9,1.9s-0.9,1.9-1.9,1.9h-6.6c-1.1,0-2,0.9-2,2s0.9,2,2,2H35v2.2c0,1.1,0.9,2,2,2s2-0.9,2-2v-2.4   c2.5-0.7,4.3-3,4.3-5.7c0-3.3-2.7-5.9-5.9-5.9h-0.7c-1.1,0-1.9-0.9-1.9-1.9s0.9-1.9,1.9-1.9h6.6c1.1,0,2-0.9,2-2   S44.4,23.8,43.2,23.8z"/><path class="st0" d="M40.7,60h-7.4c-1.1,0-2,0.9-2,2s0.9,2,2,2h7.4c1.1,0,2-0.9,2-2S41.8,60,40.7,60z"/></g></svg>